<?xml version="1.0" encoding="UTF-8"?>
<svg version="1.1" xmlns="http://www.w3.org/2000/svg" width="225" height="225">
<path d="M0 0 C9.38823529 5.38823529 9.38823529 5.38823529 12 8 C13.73717566 8.21344859 15.47536806 8.42079087 17.21704102 8.59375 C42.0082098 11.10680433 62.72931356 27.99943937 78.42431641 46.69677734 C88.84210684 59.78424475 95.1795301 75.15494173 101.96850586 90.31201172 C103.28224687 93.22317824 104.63140467 96.11424552 106 99 C106.46220947 99.99918457 106.92441895 100.99836914 107.40063477 102.02783203 C110.54308647 108.37179814 113.0839566 111.66338054 119.6875 114.25 C121.11399845 114.88742722 122.53847999 115.5293867 123.9609375 116.17578125 C124.99686035 116.63331787 124.99686035 116.63331787 126.05371094 117.10009766 C138.16746027 122.70111121 150.07858658 132.26410158 158 143 C158 143.66 158 144.32 158 145 C149.26311963 148.3976757 140.22109447 149.59743871 131 151 C134.37310428 154.56461753 137.73680261 157.30947594 141.875 159.9375 C151.35022911 166.14220939 160.45685025 173.31023589 165 184 C161.98681403 182.59836068 159.46904097 180.92637935 156.8125 178.9375 C152.23780944 175.67083208 147.49271254 173.10722573 142.5 170.5625 C133.15335659 165.73737073 123.11114544 160.29950122 119 150 C119 148.68 119 147.36 119 146 C120.87300025 145.34838988 122.7485055 144.70397805 124.625 144.0625 C125.66914063 143.70285156 126.71328125 143.34320313 127.7890625 142.97265625 C132.87158876 141.43305888 137.57583966 140.87287609 142.875 140.9375 C143.84179688 140.94652344 144.80859375 140.95554688 145.8046875 140.96484375 C146.89136719 140.98224609 146.89136719 140.98224609 148 141 C148 140.34 148 139.68 148 139 C147.44828125 138.73832031 146.8965625 138.47664062 146.328125 138.20703125 C143.69491375 136.84182609 141.24338137 135.29395 138.75 133.6875 C136.83486583 132.45594695 134.91802582 131.22704472 133 130 C132.40388916 129.59233398 131.80777832 129.18466797 131.19360352 128.76464844 C125.46359328 124.95561179 119.59169194 122.9968628 112.97851562 121.2109375 C106.61134732 119.15535451 103.94905895 116.01770493 100.66430664 110.26855469 C97.5564737 104.16503886 94.73599208 97.96333452 92 91.6875 C78.52759378 61.03251319 62.12083377 33.74457739 29.625 20.125 C24.81660503 18.36114567 20.33803138 17.58552119 15.25 17.0625 C9.32811175 16.4193441 5.86562205 15.19989731 1.18359375 11.59765625 C-4.65315013 7.32712271 -10.74238281 4.63871305 -18 5 C-19.39086846 8.09603497 -19.39086846 8.09603497 -17.625 11.4375 C-15.64901852 15.20356924 -13.18520226 18.40922901 -10.5625 21.75 C-4.86871952 29.19571293 -1.99118144 36.78777267 0.76538086 45.67749023 C3.11346888 53.17877104 6.12886627 58.86507087 11 65 C13 68 13 68 12.75390625 71.28515625 C12.04112803 74.79734323 11.07453697 78.04269069 9.9375 81.4375 C6.52792678 93.1470197 6.71233164 105.47799409 11 117 C11.9914728 118.67175341 12.9900331 120.33935415 14 122 C14 122.66 14 123.32 14 124 C14.66 124 15.32 124 16 124 C16.18175781 123.18208984 16.18175781 123.18208984 16.3671875 122.34765625 C16.72160098 120.75279559 17.0814044 119.1591273 17.4453125 117.56640625 C17.79306597 115.95743419 18.10603207 114.34011955 18.3671875 112.71484375 C19.41322885 106.66274738 21.77883629 101.54338995 26 97 C26.99 97 27.98 97 29 97 C29.4125 98.06476563 29.825 99.12953125 30.25 100.2265625 C37.14323004 117.6872538 46.19807097 134.92448829 60 148 C56.31667712 146.7124155 53.84177606 145.25334454 51.00390625 142.5859375 C50.28009766 141.90660156 49.55628906 141.22726563 48.81054688 140.52734375 C47.69776367 139.46193359 47.69776367 139.46193359 46.5625 138.375 C45.45551758 137.34439453 45.45551758 137.34439453 44.32617188 136.29296875 C37.59249093 129.91243197 32.41105381 123.14348395 28 115 C27.90203125 115.80824219 27.8040625 116.61648437 27.703125 117.44921875 C26.13293051 128.67069486 26.13293051 128.67069486 22 132 C18.25960495 133.38231991 16.6578612 133.28781428 13 131.6875 C6.03413429 126.36711438 2.83317796 117.26086544 1 109 C0.58998521 105.42459121 0.52444478 101.90887811 0.5625 98.3125 C0.56499756 97.36004395 0.56749512 96.40758789 0.57006836 95.42626953 C0.70809871 88.14194761 1.92343404 81.78836265 4.22265625 74.8984375 C5.01591906 71.9406435 5.1864889 70.7665162 4 68 C3.14844102 66.69908416 2.24658179 65.43049072 1.3125 64.1875 C-1.39453377 60.24352018 -3.3247358 56.18944889 -5.0625 51.75 C-5.31652588 51.10232666 -5.57055176 50.45465332 -5.83227539 49.78735352 C-6.98633671 46.79081079 -8.06712871 43.79492547 -9.06640625 40.7421875 C-12.32448646 31.14828342 -17.82756116 23.60550997 -23.86425781 15.58129883 C-26.67853747 11.66296492 -26.71455821 7.67996364 -26 3 C-20.18820442 -7.86065274 -9.07290428 -4.18563318 0 0 Z " fill="#065981" transform="translate(59,7)"/>
<path d="M0 0 C2.2436759 3.06924211 3.5518734 6.5007146 5 10 C5.61773827 11.40772723 6.23906964 12.81388119 6.86328125 14.21875 C8.59985306 18.13558771 10.30576032 22.0646767 12 26 C12.31751221 25.2886792 12.63502441 24.5773584 12.9621582 23.84448242 C14.40521685 20.62227432 15.85871916 17.40488384 17.3125 14.1875 C17.81201172 13.06794922 18.31152344 11.94839844 18.82617188 10.79492188 C19.31279297 9.72177734 19.79941406 8.64863281 20.30078125 7.54296875 C20.74591064 6.55321045 21.19104004 5.56345215 21.6496582 4.54370117 C23.40380222 1.23933913 24.76236755 -0.56515617 28.3125 -1.8125 C31.66790907 -2.04659831 33.92845588 -1.3263486 37 0 C38.47905238 2.95810476 38.12190903 5.9547155 38.09765625 9.1953125 C38.0962413 9.90275604 38.09482635 10.61019958 38.09336853 11.33908081 C38.087766 13.60109669 38.07521318 15.86301398 38.0625 18.125 C38.05748532 19.65755065 38.05292236 21.19010286 38.04882812 22.72265625 C38.03779577 26.48180888 38.02052952 30.24088772 38 34 C35.36 34 32.72 34 30 34 C29.505 21.625 29.505 21.625 29 9 C28.28714844 10.70929688 27.57429688 12.41859375 26.83984375 14.1796875 C25.87374117 16.41204104 24.90621898 18.64378059 23.9375 20.875 C23.47150391 22.00292969 23.00550781 23.13085938 22.52539062 24.29296875 C19.01825669 32.26155878 19.01825669 32.26155878 16.24267578 34.27441406 C13.46557834 35.21240902 11.27214519 35.0700551 8.46582031 34.34765625 C5.22311563 32.57540577 4.57402006 30.91643146 3.10546875 27.5546875 C2.62529297 26.47832031 2.14511719 25.40195313 1.65039062 24.29296875 C1.16763672 23.16503906 0.68488281 22.03710938 0.1875 20.875 C-0.31458984 19.73933594 -0.81667969 18.60367188 -1.33398438 17.43359375 C-2.57126707 14.62908631 -3.78764798 11.8153744 -5 9 C-5.33 17.25 -5.66 25.5 -6 34 C-8.64 34 -11.28 34 -14 34 C-14.07417023 29.49767666 -14.1286105 24.99570909 -14.16479492 20.49291992 C-14.17987936 18.96128139 -14.20034978 17.42968602 -14.22631836 15.89819336 C-14.26271847 13.69634346 -14.27972913 11.49506467 -14.29296875 9.29296875 C-14.30845261 8.60849167 -14.32393646 7.92401459 -14.33988953 7.21879578 C-14.34157258 2.46184212 -14.34157258 2.46184212 -12.59106445 0.0949707 C-8.26586328 -2.88163314 -4.66482993 -2.20965628 0 0 Z " fill="#065A84" transform="translate(14,181)"/>
<path d="M0 0 C0.88558594 -0.020625 1.77117187 -0.04125 2.68359375 -0.0625 C7.94065801 -0.09383868 11.57653696 0.31274801 16.125 3.25 C18.7601282 5.8851282 18.38243582 7.10175937 18.390625 10.7734375 C18.39449219 12.42859375 18.39449219 12.42859375 18.3984375 14.1171875 C18.39070313 15.27476562 18.38296875 16.43234375 18.375 17.625 C18.38660156 19.34976563 18.38660156 19.34976563 18.3984375 21.109375 C18.39585937 22.21539062 18.39328125 23.32140625 18.390625 24.4609375 C18.38836914 25.47462402 18.38611328 26.48831055 18.38378906 27.53271484 C18.12347309 30.26603252 17.52611484 31.91596808 16.125 34.25 C17.775 36.23 19.425 38.21 21.125 40.25 C19.54320385 40.35867302 17.95922847 40.43589827 16.375 40.5 C15.49328125 40.54640625 14.6115625 40.5928125 13.703125 40.640625 C11.125 40.25 11.125 40.25 9.38671875 38.26953125 C5.87892862 35.1373594 2.23631061 35.69094868 -2.3125 35.6875 C-9.29689005 35.6502641 -13.70214693 35.42285307 -18.875 30.25 C-19.38652612 26.14556329 -19.29179063 22.00767009 -19.3125 17.875 C-19.34537109 16.72515625 -19.37824219 15.5753125 -19.41210938 14.390625 C-19.46616609 5.9577769 -19.46616609 5.9577769 -16.59765625 2.5234375 C-11.10112737 -0.04739237 -5.9768288 0.03449829 0 0 Z M-9.875 7.25 C-9.97399523 8.79955559 -10.00579524 10.35353673 -10.0078125 11.90625 C-10.00910156 12.84597656 -10.01039063 13.78570312 -10.01171875 14.75390625 C-10.00785156 15.74261719 -10.00398437 16.73132813 -10 17.75 C-10.00386719 18.73871094 -10.00773438 19.72742188 -10.01171875 20.74609375 C-10.01042969 21.68582031 -10.00914062 22.62554687 -10.0078125 23.59375 C-10.00668457 24.46193359 -10.00555664 25.33011719 -10.00439453 26.22460938 C-10.0991537 28.24604154 -10.0991537 28.24604154 -8.875 29.25 C-6.20441149 29.39115161 -3.55067762 29.29247107 -0.875 29.25 C-1.865 27.93 -2.855 26.61 -3.875 25.25 C2.38579448 24.81822107 5.21575703 25.32260562 10.125 29.25 C11.8930198 25.7139604 11.30964913 21.64428745 11.3125 17.75 C11.33086914 16.42935547 11.33086914 16.42935547 11.34960938 15.08203125 C11.35154297 14.24027344 11.35347656 13.39851562 11.35546875 12.53125 C11.36163208 11.37206055 11.36163208 11.37206055 11.36791992 10.18945312 C11.29676616 8.01260287 11.29676616 8.01260287 9.125 6.25 C7.20544799 5.9572026 7.20544799 5.9572026 5.02734375 6.01953125 C3.82561523 6.02243164 3.82561523 6.02243164 2.59960938 6.02539062 C1.76236328 6.03763672 0.92511719 6.04988281 0.0625 6.0625 C-1.19916992 6.0634668 -1.19916992 6.0634668 -2.48632812 6.06445312 C-6.50015868 5.69692842 -6.50015868 5.69692842 -9.875 7.25 Z " fill="#E38E07" transform="translate(154.875,179.75)"/>
<path d="M0 0 C2.64 0.33 5.28 0.66 8 1 C8 6.94 8 12.88 8 19 C14.27 19.33 20.54 19.66 27 20 C26.96041973 13.79207086 26.96041973 13.79207086 26.90991211 7.58422852 C26.90741455 6.81522217 26.90491699 6.04621582 26.90234375 5.25390625 C26.89448853 4.06776733 26.89448853 4.06776733 26.88647461 2.85766602 C27 1 27 1 28 0 C30.33297433 -0.04092937 32.66705225 -0.04241723 35 0 C35.09907258 4.19915307 35.17156173 8.39768252 35.21972656 12.59765625 C35.23980982 14.02551121 35.26708252 15.45328425 35.30175781 16.88085938 C35.35042669 18.93640368 35.37299967 20.99085855 35.390625 23.046875 C35.41157227 24.28276367 35.43251953 25.51865234 35.45410156 26.79199219 C34.91713917 30.58537165 33.98212544 31.68888744 31 34 C28.12981559 35.43509221 25.66456277 35.11158506 22.4609375 35.09765625 C21.15898438 35.09443359 19.85703125 35.09121094 18.515625 35.08789062 C17.13541601 35.07953466 15.75520768 35.07106971 14.375 35.0625 C12.98698074 35.05748501 11.59895978 35.0529221 10.2109375 35.04882812 C6.80724868 35.03700976 3.40364561 35.02053434 0 35 C0 33.35 0 31.7 0 30 C8.91 29.67 17.82 29.34 27 29 C27 27.68 27 26.36 27 25 C25.72125 25.04640625 24.4425 25.0928125 23.125 25.140625 C21.41669021 25.17817027 19.70835492 25.21456745 18 25.25 C16.74123047 25.30027344 16.74123047 25.30027344 15.45703125 25.3515625 C9.63469947 25.44183121 4.71729613 24.65498075 0 21 C-1.29521242 17.11436275 -1.14503464 13.42199731 -1.125 9.375 C-1.12886719 8.58609375 -1.13273437 7.7971875 -1.13671875 6.984375 C-1.12665394 1.12665394 -1.12665394 1.12665394 0 0 Z " fill="#035D87" transform="translate(58,190)"/>
<path d="M0 0 C1.15693359 0.00644531 2.31386719 0.01289063 3.50585938 0.01953125 C4.70404297 0.03628906 5.90222656 0.05304688 7.13671875 0.0703125 C8.96299805 0.08384766 8.96299805 0.08384766 10.82617188 0.09765625 C13.82572149 0.12118213 16.82486919 0.15405597 19.82421875 0.1953125 C19.82421875 2.1753125 19.82421875 4.1553125 19.82421875 6.1953125 C11.57421875 6.1953125 3.32421875 6.1953125 -5.17578125 6.1953125 C-5.62299485 11.67356331 -5.62299485 11.67356331 -4.17578125 14.1953125 C-3.01820312 14.22109375 -1.860625 14.246875 -0.66796875 14.2734375 C0.87113003 14.32974599 2.41019108 14.3870927 3.94921875 14.4453125 C4.70976563 14.45949219 5.4703125 14.47367188 6.25390625 14.48828125 C12.03304015 14.73738185 15.63847591 16.00956966 19.82421875 20.1953125 C20.26590942 23.24928802 20.30138258 26.14561327 19.82421875 29.1953125 C17.6426273 31.95100697 15.95244381 33.63119997 12.82421875 35.1953125 C10.79189241 35.28058878 8.75674869 35.30247385 6.72265625 35.29296875 C4.90507813 35.28813477 4.90507813 35.28813477 3.05078125 35.28320312 C1.77976562 35.27482422 0.50875 35.26644531 -0.80078125 35.2578125 C-2.07953125 35.25330078 -3.35828125 35.24878906 -4.67578125 35.24414062 C-7.84249417 35.23232453 -11.00911481 35.21585065 -14.17578125 35.1953125 C-14.17578125 33.2153125 -14.17578125 31.2353125 -14.17578125 29.1953125 C-5.92578125 29.1953125 2.32421875 29.1953125 10.82421875 29.1953125 C10.82421875 26.8853125 10.82421875 24.5753125 10.82421875 22.1953125 C6.898995 20.23270063 1.94864568 20.83437201 -2.37890625 20.671875 C-6.32976697 20.17598507 -8.81341602 19.29430381 -12.17578125 17.1953125 C-14.65964184 13.46952161 -14.55620245 11.60819848 -14.17578125 7.1953125 C-12.84887751 4.05264575 -12.00698459 2.6149686 -8.94848633 1.07080078 C-5.81338322 0.08088445 -3.28420328 -0.03235668 0 0 Z " fill="#DB8C13" transform="translate(112.17578125,179.8046875)"/>
<path d="M0 0 C2.64 0 5.28 0 8 0 C8.33 9.57 8.66 19.14 9 29 C16.85342779 28.96041007 16.85342779 28.96041007 24.70678711 28.90991211 C25.6788208 28.90741455 26.65085449 28.90491699 27.65234375 28.90234375 C29.15269165 28.89448853 29.15269165 28.89448853 30.68334961 28.88647461 C33 29 33 29 34 30 C34.04063832 31.66617115 34.042721 33.33388095 34 35 C29.79179855 35.08742801 25.58383224 35.14053641 21.375 35.1875 C20.18519531 35.21263672 18.99539062 35.23777344 17.76953125 35.26367188 C6.58608234 35.35738793 6.58608234 35.35738793 2 32 C-0.42204038 28.36693942 -0.23302891 26.68180977 -0.1953125 22.36328125 C-0.18886719 21.06455078 -0.18242187 19.76582031 -0.17578125 18.42773438 C-0.1590706 17.05598693 -0.14214071 15.68424214 -0.125 14.3125 C-0.11496674 12.92904282 -0.10584149 11.54557873 -0.09765625 10.16210938 C-0.07404967 6.77456548 -0.04112037 3.38736928 0 0 Z " fill="#D58E20" transform="translate(177,180)"/>
<path d="M0 0 C0.88558594 -0.020625 1.77117187 -0.04125 2.68359375 -0.0625 C7.94065801 -0.09383868 11.57653696 0.31274801 16.125 3.25 C18.77199616 5.89699616 18.38249767 7.15394409 18.390625 10.84375 C18.39449219 12.51244141 18.39449219 12.51244141 18.3984375 14.21484375 C18.39070313 15.38144531 18.38296875 16.54804688 18.375 17.75 C18.38660156 19.49990234 18.38660156 19.49990234 18.3984375 21.28515625 C18.39585937 22.39761719 18.39328125 23.51007813 18.390625 24.65625 C18.38836914 25.68041016 18.38611328 26.70457031 18.38378906 27.75976562 C18.125 30.25 18.125 30.25 16.125 32.25 C16.02168969 24.82313685 16.12637301 17.61487404 17.125 10.25 C16.465 9.92 15.805 9.59 15.125 9.25 C14.5 7.1875 14.5 7.1875 14.125 5.25 C12.805 6.24 11.485 7.23 10.125 8.25 C9.795 7.92 9.465 7.59 9.125 7.25 C7.78232587 7.16368126 6.43525678 7.14293527 5.08984375 7.15234375 C4.36144287 7.15484131 3.63304199 7.15733887 2.88256836 7.15991211 C1.9519458 7.16901611 1.02132324 7.17812012 0.0625 7.1875 C-2.886875 7.208125 -5.83625 7.22875 -8.875 7.25 C-8.875 14.18 -8.875 21.11 -8.875 28.25 C-6.235 28.58 -3.595 28.91 -0.875 29.25 C-0.875 29.58 -0.875 29.91 -0.875 30.25 C-3.845 30.25 -6.815 30.25 -9.875 30.25 C-11.74976019 26.50047962 -12.14986272 25.03726868 -12.2890625 21.046875 C-12.32773438 20.0671875 -12.36640625 19.0875 -12.40625 18.078125 C-12.4371875 17.06234375 -12.468125 16.0465625 -12.5 15 C-12.53867188 13.96875 -12.57734375 12.9375 -12.6171875 11.875 C-12.71131674 9.3335106 -12.79694979 6.79202567 -12.875 4.25 C-14.855 5.24 -14.855 5.24 -16.875 6.25 C-17.205 14.17 -17.535 22.09 -17.875 30.25 C-18.205 30.25 -18.535 30.25 -18.875 30.25 C-19.02018182 26.1670404 -19.10903347 22.08474359 -19.1875 18 C-19.22939453 16.84113281 -19.27128906 15.68226563 -19.31445312 14.48828125 C-19.43814948 5.92849335 -19.43814948 5.92849335 -16.60546875 2.515625 C-11.09920568 -0.03663428 -5.97998834 0.03451653 0 0 Z " fill="#D88D1B" transform="translate(154.875,179.75)"/>
<path d="M0 0 C3.43884172 1.71942086 4.09943934 5.81251932 5.4375 9.25 C7.33860146 14.09883081 9.28769119 18.53958464 12 23 C12.86397362 25.64736301 13.39922546 28.27340784 14 31 C13.01 31.33 12.02 31.66 11 32 C4.48063781 22.77448747 4.48063781 22.77448747 3 17 C1.68 17 0.36 17 -1 17 C-1.1546875 18.3921875 -1.1546875 18.3921875 -1.3125 19.8125 C-2.0070192 23.03254358 -2.47740939 24.02579865 -5 26 C-4.34 26.66 -3.68 27.32 -3 28 C-3.25 30.5625 -3.25 30.5625 -4 33 C-4.99 33.495 -4.99 33.495 -6 34 C-6 32.68 -6 31.36 -6 30 C-6.99 29.67 -7.98 29.34 -9 29 C-8.36087333 24.6620977 -7.68434175 20.33097402 -7 16 C-6.86722656 15.04996094 -6.73445313 14.09992188 -6.59765625 13.12109375 C-5.66555193 7.30653823 -4.18144006 4.18144006 0 0 Z " fill="#025F8B" transform="translate(86,103)"/>
<path d="M0 0 C12.85276045 6.33936927 26.20285632 15.35966192 32 29 C28.98681403 27.59836068 26.46904097 25.92637935 23.8125 23.9375 C18.48650334 20.12980985 12.83642713 17.17507288 6.9777832 14.28491211 C2.51684696 12.02750287 -0.66340755 9.73645913 -4 6 C-2.68 5.67 -1.36 5.34 0 5 C0.2475 5.639375 0.495 6.27875 0.75 6.9375 C1.81408299 9.15640538 1.81408299 9.15640538 4 9.8125 C6.07160124 10.18451089 6.07160124 10.18451089 8 9 C7.67 8.34 7.34 7.68 7 7 C5.68 7 4.36 7 3 7 C0.58152803 4.49515403 0 3.53986194 0 0 Z " fill="#06577E" transform="translate(192,162)"/>
<path d="M0 0 C1.99954746 -0.04254356 4.00041636 -0.04080783 6 0 C7 1 7 1 7.03759766 3.36083984 C6.99683105 4.38387207 6.95606445 5.4069043 6.9140625 6.4609375 C6.87023437 7.57210937 6.82640625 8.68328125 6.78125 9.828125 C6.70390625 11.58382812 6.70390625 11.58382812 6.625 13.375 C6.58117187 14.53773438 6.53734375 15.70046875 6.4921875 16.8984375 C6.12909226 25.61272321 6.12909226 25.61272321 5 29 C3.68 29 2.36 29 1 29 C0.1589522 25.3535194 -0.11764968 22.00049093 -0.09765625 18.26171875 C-0.09443359 17.19501953 -0.09121094 16.12832031 -0.08789062 15.02929688 C-0.07951172 13.92650391 -0.07113281 12.82371094 -0.0625 11.6875 C-0.05798828 10.56537109 -0.05347656 9.44324219 -0.04882812 8.28710938 C-0.03707313 5.5246849 -0.02064077 2.76237002 0 0 Z " fill="#E38E06" transform="translate(178,181)"/>
<path d="M0 0 C1.32 0 2.64 0 4 0 C6.64 4.62 9.28 9.24 12 14 C12.66 13.67 13.32 13.34 14 13 C13.67 11.35 13.34 9.7 13 8 C15.87721906 11.49102579 18.4190317 15.0776193 20.875 18.875 C24.78219258 24.79035859 28.95384734 30.01303975 34 35 C30.31667712 33.7124155 27.84177606 32.25334454 25.00390625 29.5859375 C24.28009766 28.90660156 23.55628906 28.22726563 22.81054688 27.52734375 C22.06869141 26.81707031 21.32683594 26.10679687 20.5625 25.375 C19.82451172 24.68792969 19.08652344 24.00085938 18.32617188 23.29296875 C11.59249093 16.91243197 6.41105381 10.14348395 2 2 C1.91363281 2.80824219 1.82726562 3.61648437 1.73828125 4.44921875 C0.44775955 14.26428746 0.44775955 14.26428746 -2.625 17.25 C-3.40875 17.8275 -4.1925 18.405 -5 19 C-4.649375 18.443125 -4.29875 17.88625 -3.9375 17.3125 C-2.76811959 14.42802833 -3.23889658 12.96830334 -4 10 C-4 9.01 -4 8.02 -4 7 C-3 6 -2 5 -1 4 C-0.28552357 1.89667109 -0.28552357 1.89667109 0 0 Z " fill="#0C5273" transform="translate(85,120)"/>
<path d="M0 0 C1.65 0.33 3.3 0.66 5 1 C5 9.91 5 18.82 5 28 C3.35 28 1.7 28 0 28 C-1.77449594 26.22550406 -1.13030072 23.64982739 -1.1328125 21.25 C-1.13410156 20.0846875 -1.13539062 18.919375 -1.13671875 17.71875 C-1.13285156 16.4915625 -1.12898438 15.264375 -1.125 14 C-1.12886719 12.7728125 -1.13273437 11.545625 -1.13671875 10.28125 C-1.13542969 9.1159375 -1.13414063 7.950625 -1.1328125 6.75 C-1.13168457 5.67234375 -1.13055664 4.5946875 -1.12939453 3.484375 C-1 1 -1 1 0 0 Z " fill="#005E89" transform="translate(46,185)"/>
<path d="M0 0 C1.32 0 2.64 0 4 0 C3.75 2.375 3.75 2.375 3 5 C-0.22560616 7.21069289 -3.022789 7.23446134 -6.859375 7.1953125 C-7.97441406 7.18886719 -9.08945313 7.18242187 -10.23828125 7.17578125 C-11.39714844 7.15902344 -12.55601563 7.14226562 -13.75 7.125 C-14.92433594 7.11597656 -16.09867188 7.10695312 -17.30859375 7.09765625 C-20.20593536 7.07410063 -23.10286441 7.04120652 -26 7 C-26.33 5.35 -26.66 3.7 -27 2 C-18.42 2 -9.84 2 -1 2 C-0.67 1.34 -0.34 0.68 0 0 Z " fill="#E28B09" transform="translate(126,208)"/>
<path d="M0 0 C1.67542976 0.28604898 3.34385343 0.61781233 5 1 C5 1.66 5 2.32 5 3 C4.01 3 3.02 3 2 3 C2.34444881 5.47266765 2.34444881 5.47266765 3 8 C3.66 8.33 4.32 8.66 5 9 C5 9.99 5 10.98 5 12 C5.66 12.33 6.32 12.66 7 13 C7.99 14.485 7.99 14.485 9 16 C10.32 15.67 11.64 15.34 13 15 C13 16.32 13 17.64 13 19 C11.3125 19.8125 11.3125 19.8125 9 20 C7.29220027 18.37550757 5.62449243 16.70779973 4 15 C3.01 15 2.02 15 1 15 C1 14.01 1 13.02 1 12 C-0.32 11.67 -1.64 11.34 -3 11 C-3 10.01 -3 9.02 -3 8 C-3.66 8 -4.32 8 -5 8 C-6.4606285 5.35261084 -7 4.10551666 -7 1 C-5.5459375 1.0309375 -5.5459375 1.0309375 -4.0625 1.0625 C-1.12534105 1.35618499 -1.12534105 1.35618499 0 0 Z " fill="#025F8D" transform="translate(187,153)"/>
<path d="M0 0 C0.66 0 1.32 0 2 0 C2.32613281 0.61488281 2.65226562 1.22976562 2.98828125 1.86328125 C3.42527344 2.67152344 3.86226562 3.47976562 4.3125 4.3125 C4.74175781 5.11300781 5.17101563 5.91351563 5.61328125 6.73828125 C6.90579862 8.84635888 8.24641924 10.28627335 10 12 C10.6875 14.1875 10.6875 14.1875 11 16 C12.0089034 11.76353233 12.0089034 11.76353233 11.0625 7.625 C10.711875 7.08875 10.36125 6.5525 10 6 C12.5625 8.0625 12.5625 8.0625 15 11 C14.66008207 16.00164961 13.35287575 20.64348537 11.9375 25.4375 C11.57527344 26.67371094 11.21304688 27.90992188 10.83984375 29.18359375 C10.56269531 30.11300781 10.28554687 31.04242188 10 32 C9.67 32 9.34 32 9 32 C8.23826608 27.6835078 7.83936396 24.25566547 9 20 C8.34 20 7.68 20 7 20 C6.67 23.3 6.34 26.6 6 30 C5.34 30 4.68 30 4 30 C4.82056256 22.61493695 4.82056256 22.61493695 5.72265625 19.5234375 C7.21570664 14.54189959 7.21570664 14.54189959 5.828125 9.7265625 C4.23296447 7.62107787 4.23296447 7.62107787 2.48046875 5.7890625 C0.87207219 3.8454065 0.41736734 2.46084122 0 0 Z " fill="#0A5377" transform="translate(57,64)"/>
<path d="M0 0 C2.42878366 0.97820202 3.69825882 1.82770408 5.26953125 3.9140625 C4.95703125 6.6015625 4.95703125 6.6015625 4.26953125 8.9140625 C3.60953125 8.9140625 2.94953125 8.9140625 2.26953125 8.9140625 C2.26953125 8.2540625 2.26953125 7.5940625 2.26953125 6.9140625 C1.56828125 6.7903125 0.86703125 6.6665625 0.14453125 6.5390625 C-2.90949076 5.87514467 -5.77352913 4.92068024 -8.73046875 3.9140625 C-9.78234375 3.6665625 -9.78234375 3.6665625 -10.85546875 3.4140625 C-12.98845725 2.84526557 -14.78909282 1.95408532 -16.73046875 0.9140625 C-16.40046875 -0.0759375 -16.07046875 -1.0659375 -15.73046875 -2.0859375 C-11.12688096 -4.3877314 -4.73312088 -1.3232381 0 0 Z " fill="#025E8A" transform="translate(97.73046875,22.0859375)"/>
<path d="M0 0 C1.134375 0.020625 2.26875 0.04125 3.4375 0.0625 C3.4375 0.7225 3.4375 1.3825 3.4375 2.0625 C1.4575 2.0625 -0.5225 2.0625 -2.5625 2.0625 C-2.55089844 3.35027344 -2.53929688 4.63804687 -2.52734375 5.96484375 C-2.5179673 7.64322772 -2.50886695 9.32161326 -2.5 11 C-2.49162109 11.85013672 -2.48324219 12.70027344 -2.47460938 13.57617188 C-2.46977539 14.78950195 -2.46977539 14.78950195 -2.46484375 16.02734375 C-2.45698853 17.15064087 -2.45698853 17.15064087 -2.44897461 18.29663086 C-2.5625 20.0625 -2.5625 20.0625 -3.5625 21.0625 C-6.86766934 21.31285974 -10.18646041 21.24771952 -13.5 21.25 C-14.43263672 21.26224609 -15.36527344 21.27449219 -16.32617188 21.28710938 C-17.21755859 21.28904297 -18.10894531 21.29097656 -19.02734375 21.29296875 C-19.848396 21.29707764 -20.66944824 21.30118652 -21.51538086 21.30541992 C-23.5625 21.0625 -23.5625 21.0625 -25.5625 19.0625 C-25.78955078 17.18310547 -25.78955078 17.18310547 -25.7578125 14.9296875 C-25.75136719 14.12402344 -25.74492188 13.31835938 -25.73828125 12.48828125 C-25.71314453 11.22564453 -25.71314453 11.22564453 -25.6875 9.9375 C-25.67847656 9.08800781 -25.66945312 8.23851562 -25.66015625 7.36328125 C-25.63655647 5.26290116 -25.60068483 3.16266556 -25.5625 1.0625 C-24.9025 1.0625 -24.2425 1.0625 -23.5625 1.0625 C-23.5625 7.0025 -23.5625 12.9425 -23.5625 19.0625 C-17.2925 19.3925 -11.0225 19.7225 -4.5625 20.0625 C-4.60208027 13.85457086 -4.60208027 13.85457086 -4.65258789 7.64672852 C-4.65508545 6.87772217 -4.65758301 6.10871582 -4.66015625 5.31640625 C-4.66801147 4.13026733 -4.66801147 4.13026733 -4.67602539 2.92016602 C-4.46636647 -0.51057527 -3.54606445 0.06221166 0 0 Z " fill="#0B5176" transform="translate(89.5625,189.9375)"/>
<path d="M0 0 C0.66 0.33 1.32 0.66 2 1 C3.17733804 5.03126506 3.13379984 9.01197527 3.125 13.1875 C3.12757813 14.41855469 3.13015625 15.64960938 3.1328125 16.91796875 C3 20 3 20 2 22 C0.68 22 -0.64 22 -2 22 C-2.25422542 18.7097621 -2.47409878 15.41811775 -2.6875 12.125 C-2.76033203 11.18785156 -2.83316406 10.25070313 -2.90820312 9.28515625 C-2.96298828 8.38925781 -3.01777344 7.49335938 -3.07421875 6.5703125 C-3.13182373 5.74289551 -3.18942871 4.91547852 -3.2487793 4.06298828 C-3.16668213 3.38220215 -3.08458496 2.70141602 -3 2 C-2.01 1.34 -1.02 0.68 0 0 Z " fill="#E58E03" transform="translate(169,184)"/>
<path d="M0 0 C2.97 0 5.94 0 9 0 C9.103125 0.78375 9.20625 1.5675 9.3125 2.375 C9.77595022 5.33045181 9.77595022 5.33045181 13 7 C13 7.66 13 8.32 13 9 C13.66 9.66 14.32 10.32 15 11 C17 13 17 13 17 15 C19.47266765 14.65555119 19.47266765 14.65555119 22 14 C22.33 13.34 22.66 12.68 23 12 C23.99 13.32 24.98 14.64 26 16 C22.63666962 16.2310685 19.35690768 16.35814142 16 16 C14.64567325 14.68799596 13.31266518 13.35368596 12 12 C8.68029677 11.33923104 5.37853355 11.12895166 2 11 C2.66 10.34 3.32 9.68 4 9 C4.99 9 5.98 9 7 9 C5.94780811 5.84342432 5.44425999 5.30692377 2.9375 3.375 C1.968125 2.59125 0.99875 1.8075 0 1 C0 0.67 0 0.34 0 0 Z " fill="#DB8E15" transform="translate(150,204)"/>
<path d="M0 0 C0.02696009 2.7708983 0.04681952 5.5415345 0.0625 8.3125 C0.07087891 9.09818359 0.07925781 9.88386719 0.08789062 10.69335938 C0.09111328 11.45068359 0.09433594 12.20800781 0.09765625 12.98828125 C0.10289307 13.68477783 0.10812988 14.38127441 0.11352539 15.09887695 C0 17 0 17 -1 20 C-1.99 20 -2.98 20 -4 20 C-5.58035774 16.83928451 -5.22575346 13.46725496 -5.25 10 C-5.270625 9.26265625 -5.29125 8.5253125 -5.3125 7.765625 C-5.328125 5.625 -5.328125 5.625 -5 2 C-2 0 -2 0 0 0 Z " fill="#015F8B" transform="translate(64,191)"/>
<path d="M0 0 C3 0.4375 3 0.4375 4.9375 1.5 C6.61676907 4.56219653 5.68621125 7.13120941 5 10.4375 C2.8125 11.625 2.8125 11.625 0 12.4375 C-2.75 11.375 -2.75 11.375 -5 9.4375 C-6 7 -6 7 -6 4.4375 C-4.47074441 1.10912019 -3.65316741 0.53275358 0 0 Z M-3 3.4375 C-3.33 4.7575 -3.66 6.0775 -4 7.4375 C-3.01 7.9325 -3.01 7.9325 -2 8.4375 C-2 6.7875 -2 5.1375 -2 3.4375 C-2.33 3.4375 -2.66 3.4375 -3 3.4375 Z M3 4.4375 C2.67 5.7575 2.34 7.0775 2 8.4375 C2.66 8.1075 3.32 7.7775 4 7.4375 C3.67 6.4475 3.34 5.4575 3 4.4375 Z M-1 6.4375 C-1 7.7575 -1 9.0775 -1 10.4375 C-0.34 10.4375 0.32 10.4375 1 10.4375 C0.34 9.1175 -0.32 7.7975 -1 6.4375 Z " fill="#E29E26" transform="translate(219,203.5625)"/>
<path d="M0 0 C0.33 0 0.66 0 1 0 C1 10.56 1 21.12 1 32 C-1.64 32 -4.28 32 -7 32 C-7.33 23.75 -7.66 15.5 -8 7 C-8.66 7.66 -9.32 8.32 -10 9 C-9.67 7.35 -9.34 5.7 -9 4 C-8.01 3.67 -7.02 3.34 -6 3 C-4.69524382 5.60951236 -4.88698428 7.52701285 -4.90234375 10.4453125 C-4.90556641 11.52167969 -4.90878906 12.59804687 -4.91210938 13.70703125 C-4.92048828 14.83496094 -4.92886719 15.96289062 -4.9375 17.125 C-4.94201172 18.26066406 -4.94652344 19.39632812 -4.95117188 20.56640625 C-4.96298385 23.37765638 -4.97945493 26.1888023 -5 29 C-3.35 29.33 -1.7 29.66 0 30 C0 20.1 0 10.2 0 0 Z " fill="#0D4F70" transform="translate(51,183)"/>
<path d="M0 0 C4.00870131 1.33623377 5.36340635 3.95293911 7.625 7.3125 C8.03234375 7.89451172 8.4396875 8.47652344 8.859375 9.07617188 C12.67357309 14.65222637 12.67357309 14.65222637 13 18 C12.0625 20.25 12.0625 20.25 11 22 C9 19 9 19 8.1875 17.25 C6.73628728 14.50033379 4.91851732 12.14281583 3.0234375 9.68359375 C2 8 2 8 2 5 C1.34 5 0.68 5 0 5 C0 3.35 0 1.7 0 0 Z " fill="#025F8C" transform="translate(57,59)"/>
<path d="M0 0 C6.635438 0.82942975 12.41810493 4.51131558 18 8 C17.01 9.485 17.01 9.485 16 11 C13.32897786 10.00790606 11.01253699 9.00824802 8.625 7.4375 C5.42651527 5.68594884 2.60314201 5.35324922 -1 5 C-0.67 3.35 -0.34 1.7 0 0 Z " fill="#035E8A" transform="translate(173,121)"/>
<path d="M0 0 C2.1875 -0.375 2.1875 -0.375 5 0 C7.875 2.6875 7.875 2.6875 10 6 C9.87005744 8.85873639 9.26513143 10.46973714 8 13 C4.55137873 11.85045958 4.15804191 11.17472849 2.3125 8.1875 C1.87550781 7.50042969 1.43851562 6.81335937 0.98828125 6.10546875 C0 4 0 4 0 0 Z " fill="#104C6A" transform="translate(72,35)"/>
<path d="M0 0 C3.51855159 1.40742064 4.38612834 2.66466523 6 6 C6.99 6.33 7.98 6.66 9 7 C9 7.66 9 8.32 9 9 C9.66 9 10.32 9 11 9 C10.67 9.99 10.34 10.98 10 12 C8.51515588 11.60404157 7.0371169 11.18249294 5.5625 10.75 C4.32693359 10.40195312 4.32693359 10.40195312 3.06640625 10.046875 C1 9 1 9 0.21484375 6.890625 C0.14394531 6.26671875 0.07304688 5.6428125 0 5 C-0.66 5 -1.32 5 -2 5 C-1.125 1.125 -1.125 1.125 0 0 Z " fill="#025E89" transform="translate(118,38)"/>
<path d="M0 0 C1.7824918 3.33311475 2.48792856 6.24480943 3 10 C3.66 10 4.32 10 5 10 C5 7.69 5 5.38 5 3 C7 5 7 5 8.6875 8.5625 C11.1062433 13.57472471 14.47552573 17.72310988 18 22 C15 22 15 22 13.5 20.8125 C9 15.375 9 15.375 9 12 C8.01 12.66 7.02 13.32 6 14 C6.33 15.32 6.66 16.64 7 18 C0.21274584 11.56996974 0.21274584 11.56996974 -0.1953125 6.640625 C-0.17210937 5.85171875 -0.14890625 5.0628125 -0.125 4.25 C-0.10695312 3.45078125 -0.08890625 2.6515625 -0.0703125 1.828125 C-0.04710937 1.22484375 -0.02390625 0.6215625 0 0 Z " fill="#0E5074" transform="translate(33,10)"/>
<path d="M0 0 C1.32 0.66 2.64 1.32 4 2 C3.01 2.495 3.01 2.495 2 3 C2 8.94 2 14.88 2 21 C7.87869036 22.74951394 7.87869036 22.74951394 13.62109375 23.4140625 C14.80541992 23.47207031 14.80541992 23.47207031 16.01367188 23.53125 C17.2134668 23.57765625 17.2134668 23.57765625 18.4375 23.625 C19.26443359 23.66367188 20.09136719 23.70234375 20.94335938 23.7421875 C22.96191073 23.83553092 24.98092331 23.91880961 27 24 C27 24.33 27 24.66 27 25 C23.99900412 25.10890711 21.00203622 25.18773555 18 25.25 C16.74123047 25.30027344 16.74123047 25.30027344 15.45703125 25.3515625 C9.63469947 25.44183121 4.71729613 24.65498075 0 21 C-1.29521242 17.11436275 -1.14503464 13.42199731 -1.125 9.375 C-1.12886719 8.58609375 -1.13273437 7.7971875 -1.13671875 6.984375 C-1.12665394 1.12665394 -1.12665394 1.12665394 0 0 Z " fill="#124F71" transform="translate(58,190)"/>
<path d="M0 0 C5.44304553 4.94822321 11.69469014 11.5631688 13 19 C10.66666667 16.66666667 8.33333333 14.33333333 6 12 C3.83656989 14.03268602 3.83656989 14.03268602 2 17 C0.35 14.03 -1.3 11.06 -3 8 C-1 8 -1 8 0.625 9.5 C1.07875 9.995 1.5325 10.49 2 11 C2.24428343 5.2025577 2.24428343 5.2025577 0 0 Z " fill="#095579" transform="translate(136,54)"/>
<path d="M0 0 C-1.8125 1.5625 -1.8125 1.5625 -4 3 C-4.99 2.67 -5.98 2.34 -7 2 C-7.66 3.32 -8.32 4.64 -9 6 C-11.97 5.505 -11.97 5.505 -15 5 C-14.34 7.31 -13.68 9.62 -13 12 C-12.34 12 -11.68 12 -11 12 C-10.67 12.99 -10.34 13.98 -10 15 C-9.01 15.33 -8.02 15.66 -7 16 C-7 16.99 -7 17.98 -7 19 C-10.57061932 17.55622784 -12.14791912 15.8205876 -14.25 12.625 C-14.77078125 11.85414063 -15.2915625 11.08328125 -15.828125 10.2890625 C-17 8 -17 8 -17 4 C-15.10751181 3.32389577 -13.2108398 2.65949561 -11.3125 2 C-10.25675781 1.62875 -9.20101562 1.2575 -8.11328125 0.875 C-5.21637944 0.0608143 -2.98299377 -0.17709796 0 0 Z " fill="#0C5475" transform="translate(195,149)"/>
<path d="M0 0 C3.43884172 1.71942086 4.09943934 5.81251932 5.4375 9.25 C7.76836465 15.25073124 7.76836465 15.25073124 10.78515625 20.921875 C11.18605469 21.60765625 11.58695313 22.2934375 12 23 C11.67 23.66 11.34 24.32 11 25 C9.99466333 23.37829621 8.99588093 21.75252763 8 20.125 C7.443125 19.22007813 6.88625 18.31515625 6.3125 17.3828125 C5 15 5 15 5 13 C3.68 12.34 2.36 11.68 1 11 C1 9.02 1 7.04 1 5 C-1.88437779 6.29299694 -3.87219421 7.65941363 -6 10 C-4.6302836 6.00499382 -2.74277578 3.19990508 0 0 Z " fill="#0D5273" transform="translate(86,103)"/>
<path d="M0 0 C2.9375 1.1875 2.9375 1.1875 6 3 C7.26962134 6.30101547 7.10824593 8.67526221 6 12 C1.91358743 11.26733512 -1.59474154 9.31342025 -5.25 7.4375 C-6.22453125 6.9434668 -6.22453125 6.9434668 -7.21875 6.43945312 C-8.81434294 5.62992435 -10.40742483 4.81544958 -12 4 C-11.67 3.34 -11.34 2.68 -11 2 C-0.62068966 5.37931034 -0.62068966 5.37931034 1 7 C1.66 6.67 2.32 6.34 3 6 C3 5.01 3 4.02 3 3 C2.01 2.67 1.02 2.34 0 2 C0 1.34 0 0.68 0 0 Z " fill="#09547A" transform="translate(100,23)"/>
<path d="M0 0 C5.46727972 2.44462067 9.8047298 6.55749134 12.4375 11.9375 C12.623125 12.618125 12.80875 13.29875 13 14 C6.04931961 16.79080349 -0.54508438 17.63419196 -8 18 C-6.02945954 15.24426335 -4.82661494 14.96456502 -1.42578125 14.26953125 C-0.05620217 14.10412315 1.31505821 13.95217895 2.6875 13.8125 C3.38939453 13.73064453 4.09128906 13.64878906 4.81445312 13.56445312 C6.54166726 13.36470727 8.27070003 13.18080012 10 13 C8.12347866 9.59916594 6.37052241 7.20378377 3.3125 4.8125 C1.42578125 3.33203125 1.42578125 3.33203125 0 2 C0 1.34 0 0.68 0 0 Z " fill="#0F5072" transform="translate(204,138)"/>
<path d="M0 0 C0.61875 0.268125 1.2375 0.53625 1.875 0.8125 C2.205 1.8025 2.535 2.7925 2.875 3.8125 C4.89008358 4.54573796 4.89008358 4.54573796 6.875 4.8125 C7.205 6.1325 7.535 7.4525 7.875 8.8125 C5.875 9.8125 5.875 9.8125 3.5625 9.0625 C0.84092886 7.79665296 -1.65786059 6.52579126 -4.125 4.8125 C-4.455 3.8225 -4.785 2.8325 -5.125 1.8125 C-2.125 -0.1875 -2.125 -0.1875 0 0 Z " fill="#025F8C" transform="translate(63.125,11.1875)"/>
<path d="M0 0 C6.93 0 13.86 0 21 0 C21 0.99 21 1.98 21 3 C14.73 3 8.46 3 2 3 C2 2.34 2 1.68 2 1 C1.34 0.67 0.68 0.34 0 0 Z " fill="#E78D02" transform="translate(188,211)"/>
<path d="M0 0 C0.99 0 1.98 0 3 0 C2.67 1.32 2.34 2.64 2 4 C1.34 4 0.68 4 0 4 C0.4125 4.680625 0.825 5.36125 1.25 6.0625 C2.11697094 9.45813617 1.80947068 9.91473925 0.125 12.8125 C-0.57625 13.864375 -1.2775 14.91625 -2 16 C-3.32 16 -4.64 16 -6 16 C-5.21302675 12.58978257 -4.12880057 9.31114834 -3 6 C-2.34 6 -1.68 6 -1 6 C-1.020625 5.195625 -1.04125 4.39125 -1.0625 3.5625 C-1 1 -1 1 0 0 Z " fill="#01618B" transform="translate(35,191)"/>
<path d="M0 0 C3.81248426 -0.02887236 7.6249407 -0.04675492 11.4375 -0.0625 C12.52611328 -0.07087891 13.61472656 -0.07925781 14.73632812 -0.08789062 C15.77080078 -0.09111328 16.80527344 -0.09433594 17.87109375 -0.09765625 C18.82943115 -0.10289307 19.78776855 -0.10812988 20.77514648 -0.11352539 C23 0 23 0 24 1 C24.04063832 2.66617115 24.042721 4.33388095 24 6 C23.34 6 22.68 6 22 6 C22 4.68 22 3.36 22 2 C15.07 2 8.14 2 1 2 C0.67 1.34 0.34 0.68 0 0 Z " fill="#CE8C2B" transform="translate(187,209)"/>
<path d="M0 0 C0 1.65 0 3.3 0 5 C-2.31 5 -4.62 5 -7 5 C-7 3.35 -7 1.7 -7 0 C-9.31 1.32 -11.62 2.64 -14 4 C-13.08235613 1.70589032 -12.27301818 0.23101538 -10.375 -1.375 C-6.60337608 -2.36753261 -3.70011363 -1.11003409 0 0 Z " fill="#055C86" transform="translate(51,181)"/>
<path d="M0 0 C1.010625 0.639375 2.02125 1.27875 3.0625 1.9375 C8.40813073 4.70181715 13.92901794 4.48452499 19.8046875 4.53125 C20.85914062 4.6859375 21.91359375 4.840625 23 5 C24.4453125 7.03125 24.4453125 7.03125 25 9 C24.01 9.66 23.02 10.32 22 11 C22 9.35 22 7.7 22 6 C20.13794922 6.03480469 20.13794922 6.03480469 18.23828125 6.0703125 C16.5963602 6.08907731 14.95443262 6.10727675 13.3125 6.125 C12.08756836 6.15013672 12.08756836 6.15013672 10.83789062 6.17578125 C6.42907071 6.2114802 3.01268424 6.07580814 -1 4 C-0.67 2.68 -0.34 1.36 0 0 Z " fill="#065883" transform="translate(63,208)"/>
<path d="M0 0 C10.34782609 10.04347826 10.34782609 10.04347826 12 15 C8.96147295 13.59023295 6.4060405 11.91129772 3.75 9.875 C3.04359375 9.33617187 2.3371875 8.79734375 1.609375 8.2421875 C1.07828125 7.83226562 0.5471875 7.42234375 0 7 C0.66 6.34 1.32 5.68 2 5 C1.34 4.34 0.68 3.68 0 3 C0 2.01 0 1.02 0 0 Z " fill="#125074" transform="translate(212,176)"/>
<path d="M0 0 C0.66 0 1.32 0 2 0 C2.433125 1.19625 2.86625 2.3925 3.3125 3.625 C4.66093297 7.21873066 6.25531228 10.57772794 8 14 C8.93227999 15.86728594 9.84766609 17.7430605 10.75 19.625 C11.19859375 20.54539062 11.6471875 21.46578125 12.109375 22.4140625 C13.08942304 25.25964058 12.84231516 26.21325433 12 29 C10.28370008 25.35552538 8.57492854 21.70762731 6.87304688 18.05639648 C6.29307445 16.81487274 5.71105624 15.57430253 5.12695312 14.3347168 C4.28758734 12.55249199 3.45618367 10.76652415 2.625 8.98046875 C2.12226563 7.90692139 1.61953125 6.83337402 1.1015625 5.72729492 C0 3 0 3 0 0 Z " fill="#0E5272" transform="translate(145,83)"/>
<path d="M0 0 C0.66 0 1.32 0 2 0 C2 0.66 2 1.32 2 2 C4.33214148 3.20628008 6.49642139 4.1654738 9 5 C10.6875 8.0625 10.6875 8.0625 12 11 C11.01 11 10.02 11 9 11 C9 10.34 9 9.68 9 9 C7.63875 8.62875 7.63875 8.62875 6.25 8.25 C2.89648511 6.96018658 1.32291764 5.68028958 -1 3 C-0.67 2.01 -0.34 1.02 0 0 Z " fill="#035F8B" transform="translate(203,171)"/>
<path d="M0 0 C2.95413897 2.84839798 5.53394315 5.83237824 8.0625 9.0625 C10.25802962 11.86485546 12.41728865 14.54602193 15 17 C10.17170572 15.51299286 7.2512231 12.78716744 3.6875 9.375 C3.13771484 8.859375 2.58792969 8.34375 2.02148438 7.8125 C0.67501946 6.54799382 -0.66332535 5.27485078 -2 4 C-1.34 3.34 -0.68 2.68 0 2 C0 1.34 0 0.68 0 0 Z " fill="#1D536F" transform="translate(104,138)"/>
<path d="M0 0 C1.32 0 2.64 0 4 0 C5.703125 1.828125 5.703125 1.828125 7.25 4.25 C7.77078125 5.03890625 8.2915625 5.8278125 8.828125 6.640625 C10 9 10 9 10 13 C9.01 12.67 8.02 12.34 7 12 C6.33333333 10.33333333 5.66666667 8.66666667 5 7 C4.01 6.67 3.02 6.34 2 6 C0 1.78947368 0 1.78947368 0 0 Z " fill="#025F8E" transform="translate(38,22)"/>
<path d="M0 0 C1.32 0.66 2.64 1.32 4 2 C0.25 5 0.25 5 -2 5 C-1.04134491 7.33075929 -1.04134491 7.33075929 2 9 C1.01 9.495 1.01 9.495 0 10 C-2.24310013 9.10333658 -4.44754321 8.10853317 -6.625 7.0625 C-7.81351563 6.49660156 -9.00203125 5.93070313 -10.2265625 5.34765625 C-11.14179687 4.90292969 -12.05703125 4.45820313 -13 4 C-10.19725015 3.19745048 -8.38178245 3.02131785 -5.375 3.125 C-4.26125 3.08375 -3.1475 3.0425 -2 3 C-1.34 2.01 -0.68 1.02 0 0 Z " fill="#0A5378" transform="translate(60,8)"/>
<path d="M0 0 C0.66 0.33 1.32 0.66 2 1 C1.01 2.485 1.01 2.485 0 4 C-0.16713569 6.62531524 -0.16713569 6.62531524 0 9 C1.32 9.33 2.64 9.66 4 10 C3.67 8.35 3.34 6.7 3 5 C3.99 4.67 4.98 4.34 6 4 C6 5.32 6 6.64 6 8 C6.66 8.66 7.32 9.32 8 10 C5.8125 11.1875 5.8125 11.1875 3 12 C0.25 10.9375 0.25 10.9375 -2 9 C-3 6.5625 -3 6.5625 -3 4 C-1.5625 1.6875 -1.5625 1.6875 0 0 Z " fill="#CA8B38" transform="translate(216,204)"/>
<path d="M0 0 C3.35116202 3.81339126 5.3025818 7.2650966 7 12 C6.67 12.66 6.34 13.32 6 14 C4.125 13.375 4.125 13.375 2 12 C0.20767082 7.78802643 0 4.52001077 0 0 Z " fill="#09567F" transform="translate(98,128)"/>
<path d="M0 0 C-0.55312735 4.02992782 -1.1558062 8.02022924 -2 12 C-2.99 11.67 -3.98 11.34 -5 11 C-5.75 7.75 -5.75 7.75 -6 4 C-3.02564103 0 -3.02564103 0 0 0 Z " fill="#03608A" transform="translate(40,9)"/>
<path d="M0 0 C1.65 0 3.3 0 5 0 C5 0.66 5 1.32 5 2 C9.9026699 3.98756888 14.48387248 4.37429811 19.70703125 4.65625 C20.46371094 4.7696875 21.22039062 4.883125 22 5 C22.33 5.66 22.66 6.32 23 7 C20.09988447 6.79822665 17.20829161 6.56479333 14.3125 6.3125 C13.49587891 6.25900391 12.67925781 6.20550781 11.83789062 6.15039062 C7.70834252 5.76585781 4.92455178 5.42455178 1.91796875 2.41796875 C1.28503906 1.62003906 0.65210938 0.82210938 0 0 Z " fill="#0C5073" transform="translate(62,18)"/>
<path d="M0 0 C0.6875 2.125 0.6875 2.125 1 4 C-0.98 4 -2.96 4 -5 4 C-5 3.34 -5 2.68 -5 2 C-6.32 1.34 -7.64 0.68 -9 0 C-9 -0.33 -9 -0.66 -9 -1 C-3.375 -2.25 -3.375 -2.25 0 0 Z " fill="#E79605" transform="translate(172,215)"/>
<path d="M0 0 C3.17660083 1.58830042 3.86799684 4.80484426 5.1875 7.9375 C5.47302734 8.58396484 5.75855469 9.23042969 6.05273438 9.89648438 C6.76746209 11.57113836 7.39063089 13.28419961 8 15 C7.67 15.66 7.34 16.32 7 17 C4.37613513 13.93882432 4 13.26826873 4 9 C3.01 8.67 2.02 8.34 1 8 C0.67 5.36 0.34 2.72 0 0 Z " fill="#0D5175" transform="translate(14,183)"/>
<path d="M0 0 C2.31 0.66 4.62 1.32 7 2 C7.6875 4.3125 7.6875 4.3125 8 7 C6.6875 8.8125 6.6875 8.8125 5 10 C4.34 10 3.68 10 3 10 C2.67 9.01 2.34 8.02 2 7 C2.66 6.34 3.32 5.68 4 5 C4 4.34 4 3.68 4 3 C2.35 2.67 0.7 2.34 -1 2 C-0.67 1.34 -0.34 0.68 0 0 Z " fill="#05577F" transform="translate(7,179)"/>
<path d="M0 0 C2.86724686 0.57344937 3.8614515 0.8614515 6 3 C6.125 5.625 6.125 5.625 6 8 C5.01 8.495 5.01 8.495 4 9 C3.34 7.02 2.68 5.04 2 3 C1.34 3 0.68 3 0 3 C0 2.01 0 1.02 0 0 Z " fill="#055C89" transform="translate(74,37)"/>
<path d="M0 0 C1.65 1.65 3.3 3.3 5 5 C3.68 5.99 2.36 6.98 1 8 C0.01 7.34 -0.98 6.68 -2 6 C-1.125 1.125 -1.125 1.125 0 0 Z " fill="#01608A" transform="translate(21,203)"/>
<path d="M0 0 C2.64 0 5.28 0 8 0 C8 1.32 8 2.64 8 4 C6.02 4 4.04 4 2 4 C1.34 2.68 0.68 1.36 0 0 Z " fill="#E98904" transform="translate(154,181)"/>
<path d="M0 0 C1.98 0 3.96 0 6 0 C6 0.66 6 1.32 6 2 C6.94875 2.309375 7.8975 2.61875 8.875 2.9375 C12 4 12 4 14 5 C14 5.66 14 6.32 14 7 C9.25981099 5.16508812 4.63586749 3.08058541 0 1 C0 0.67 0 0.34 0 0 Z " fill="#0D5270" transform="translate(198,175)"/>
<path d="M0 0 C0.99 0 1.98 0 3 0 C3.79953138 3.28696233 4.09658936 4.71023192 3 8 C2.01 8 1.02 8 0 8 C0 5.36 0 2.72 0 0 Z " fill="#035E8F" transform="translate(51,41)"/>
<path d="M0 0 C1.98 0 3.96 0 6 0 C6.33 1.65 6.66 3.3 7 5 C6.01 5.495 6.01 5.495 5 6 C3.31237149 4.3545622 1.6459651 2.68711423 0 1 C0 0.67 0 0.34 0 0 Z " fill="#01618A" transform="translate(108,34)"/>
<path d="M0 0 C-3 1 -3 1 -5.375 0.875 C-8.62677493 1.02984643 -10.34927311 2.1823587 -13 4 C-12.0668626 1.6671565 -11.27420702 0.22342795 -9.3125 -1.375 C-5.8514742 -2.31041238 -3.31377375 -1.14707553 0 0 Z " fill="#0C4F73" transform="translate(50,181)"/>
<path d="M0 0 C0.66 0 1.32 0 2 0 C0.515 6.435 0.515 6.435 -1 13 C-1.33 13 -1.66 13 -2 13 C-3.19876651 7.55106131 -2.91360308 4.77830905 0 0 Z " fill="#0F4E70" transform="translate(68,83)"/>
<path d="M0 0 C0.66 0 1.32 0 2 0 C6.08529742 5.01907969 6.08529742 5.01907969 5.75 8.875 C5.5025 9.57625 5.255 10.2775 5 11 C3.33167423 8.49751135 2.37618326 6.58850813 1.375 3.8125 C1.11460938 3.09707031 0.85421875 2.38164063 0.5859375 1.64453125 C0.39257812 1.10183594 0.19921875 0.55914062 0 0 Z " fill="#0B5073" transform="translate(46,37)"/>
<path d="M0 0 C2.64752004 2.57784846 4.94432065 4.91648098 7 8 C2.56541027 6.6062718 0.12621626 4.39417765 -3 1 C-2.01 0.67 -1.02 0.34 0 0 Z " fill="#0C5174" transform="translate(191,167)"/>
<path d="M0 0 C1.32 0.33 2.64 0.66 4 1 C4.66 3.31 5.32 5.62 6 8 C1.125 3.375 1.125 3.375 0 0 Z " fill="#0A5471" transform="translate(40,28)"/>
</svg>
