<?xml version="1.0" encoding="UTF-8"?>
<svg version="1.1" xmlns="http://www.w3.org/2000/svg" width="1163" height="1199">
<path d="M0 0 C0.9973605 0.00035877 0.9973605 0.00035877 2.01486969 0.00072479 C23.99242302 0.01069231 45.54151093 0.79551015 67.25 4.375 C67.90929504 4.48154907 68.56859009 4.58809814 69.24786377 4.69787598 C144.75330492 16.9377969 210.81776618 50.19529822 264.97470093 103.92446899 C266.39559002 105.33344151 267.82041788 106.73843847 269.24536133 108.14331055 C275.35068935 114.24100895 280.90566661 120.60385637 286.25 127.375 C287.00494751 128.31061768 287.00494751 128.31061768 287.77514648 129.26513672 C323.8759787 174.02880766 323.53656907 236.46369197 317.77734375 290.98339844 C308.63600422 373.57351282 284.45020416 454.54801714 245.25 550.375 C244.79705566 551.43106445 244.34411133 552.48712891 243.87744141 553.57519531 C240.73354568 560.87138482 237.51673338 568.13303102 234.25 575.375 C233.77014648 576.43912109 233.29029297 577.50324219 232.79589844 578.59960938 C215.88453302 615.92200719 196.86251935 651.97745134 176.25 687.375 C183.18036439 687.52574101 189.8779153 687.13629733 196.75 686.25 C197.7517627 686.12383301 198.75352539 685.99766602 199.78564453 685.86767578 C210.74944349 684.41801243 221.62474115 682.45114231 232.49804688 680.44482422 C255.73842127 676.17724076 280.1719653 674.55158346 300.65625 688.47265625 C312.15570227 696.90674248 320.6847756 707.31960024 324.25 721.375 C324.81534381 726.3265479 324.85527554 731.20792447 324.8125 736.1875 C324.83634766 737.45142578 324.86019531 738.71535156 324.88476562 740.01757812 C324.85093001 762.04456217 312.29455018 779.06427681 297.5625 794.375 C291.54322069 800.25472878 284.96799631 805.3305259 278.25 810.375 C277.43088135 811.00124268 277.43088135 811.00124268 276.59521484 811.64013672 C239.24354634 840.1141483 195.26690858 854.10139283 149.25 860.375 C148.43337891 860.49359375 147.61675781 860.6121875 146.77539062 860.734375 C133.46442614 862.61515047 120.10300848 862.55383216 106.6875 862.5625 C105.7588916 862.56358765 104.8302832 862.56467529 103.87353516 862.5657959 C101.20597195 862.56544199 98.53862101 862.5562949 95.87109375 862.54296875 C94.65678932 862.54114845 94.65678932 862.54114845 93.41795349 862.53929138 C89.86282457 862.50966669 86.67112673 862.33077418 83.25 861.375 C83.20101562 862.48746094 83.15203125 863.59992187 83.1015625 864.74609375 C82.88422266 869.64028366 82.65667537 874.53398389 82.4296875 879.42773438 C82.30148353 882.24404112 82.17625413 885.06036167 82.0546875 887.87695312 C78.35520199 973.37181246 72.33236867 1071.65746063 9.25 1140.375 C8.51394531 1141.17679688 7.77789063 1141.97859375 7.01953125 1142.8046875 C-28.1109371 1179.64166101 -88.70920393 1198.43030536 -138.546875 1199.67578125 C-141.19928749 1199.69536779 -143.84793977 1199.70277772 -146.5 1199.6875 C-147.19654694 1199.68501251 -147.89309387 1199.68252502 -148.61074829 1199.67996216 C-178.36097589 1199.51636162 -209.17980986 1191.89335467 -231.75 1171.375 C-233.00490234 1170.29605469 -233.00490234 1170.29605469 -234.28515625 1169.1953125 C-244.04054724 1160.69061266 -251.73564905 1151.21879043 -258.75 1140.375 C-259.40871094 1139.36308594 -260.06742188 1138.35117188 -260.74609375 1137.30859375 C-300.45456202 1072.19309749 -300.69386801 987.40546821 -302.40869141 913.67480469 C-302.56428281 907.50381012 -302.81959258 901.48031813 -303.75 895.375 C-304.87792969 895.82230469 -306.00585938 896.26960937 -307.16796875 896.73046875 C-323.53583146 903.07453337 -340.26664366 907.51414772 -357.75 909.375 C-358.7296875 909.48585938 -359.709375 909.59671875 -360.71875 909.7109375 C-404.35930176 913.87253651 -457.13781309 907.3158747 -492.7734375 879.84765625 C-497.05666991 876.28953799 -500.99672518 872.48572957 -504.75 868.375 C-508.19262046 870.37184953 -511.45284201 872.55348739 -514.70922852 874.83935547 C-537.88671864 890.91795684 -565.79259994 897.7094899 -593.73632812 892.77294922 C-635.58196129 884.50326177 -666.77377943 852.35126261 -689.6875 818.25 C-743.18998979 737.58603638 -771.84614955 640.18763801 -823.75 427.375 C-823.93024719 426.46987671 -824.11049438 425.56475342 -824.29620361 424.63220215 C-828.13371628 405.31093549 -831.37829695 385.9443121 -834.125 366.4375 C-834.31674301 365.08467926 -834.31674301 365.08467926 -834.51235962 363.70452881 C-837.08497262 345.40184665 -837.93660448 327.44709312 -837.93530273 308.97265625 C-837.93747372 305.54153738 -837.95564643 302.11074917 -837.97460938 298.6796875 C-838.02565643 278.85510942 -836.90324999 259.12442153 -834 239.5 C-833.83153564 238.35128418 -833.66307129 237.20256836 -833.48950195 236.01904297 C-823.44051622 170.35373307 -794.70362736 106.60323457 -740.39111328 66.09887695 C-707.20761575 41.92973408 -669.79239506 27.37382261 -629.4375 20.5625 C-628.28403076 20.36769043 -627.13056152 20.17288086 -625.94213867 19.97216797 C-606.64399007 16.91025441 -587.46078391 15.96567594 -567.9375 16 C-566.17761246 16.00081573 -566.17761246 16.00081573 -564.38217163 16.00164795 C-508.89422099 16.11898145 -454.42425632 26.44581654 -401.3125 42.078125 C-400.66087891 42.26985291 -400.00925781 42.46158081 -399.33789062 42.65911865 C-394.2852359 44.16787965 -389.33038182 45.90103767 -384.3984375 47.76464844 C-379.78372022 48.82814339 -375.9195184 47.77307817 -371.88671875 45.44140625 C-370.82396729 44.84646362 -370.82396729 44.84646362 -369.73974609 44.23950195 C-368.98000488 43.80984131 -368.22026367 43.38018066 -367.4375 42.9375 C-335.47324339 25.59077526 -298.92396107 16.17957358 -262.75 13.375 C-262.04037109 13.31860352 -261.33074219 13.26220703 -260.59960938 13.20410156 C-226.76196975 10.63972439 -192.64388378 13.16982596 -159.05859375 17.47265625 C-157.81271484 17.62613525 -156.56683594 17.77961426 -155.28320312 17.93774414 C-153.03995787 18.21535969 -150.79864765 18.50950305 -148.56054688 18.82592773 C-140.86371019 19.75297841 -134.75730214 18.50920398 -127.375 16.3125 C-107.796626 10.88859555 -87.99104913 6.95826544 -67.875 4.125 C-66.80910645 3.97393799 -65.74321289 3.82287598 -64.64501953 3.66723633 C-43.13246082 0.812741 -21.68697534 -0.03337962 0 0 Z " fill="#FDFDFD" transform="translate(838.75,-0.375)"/>
<path d="M0 0 C1.19318848 0.36867188 2.38637695 0.73734375 3.61572266 1.1171875 C35.73094503 11.1048504 66.50341592 24.3595828 94 44 C95.10722412 44.78479736 95.10722412 44.78479736 96.23681641 45.58544922 C107.34748484 53.49555115 117.91564277 61.81828748 128 71 C128.66128906 71.5995752 129.32257813 72.19915039 130.00390625 72.81689453 C139.14282418 81.13859898 147.81539443 89.73928597 156 99 C156.47324707 99.52851563 156.94649414 100.05703125 157.43408203 100.6015625 C170.59244366 115.32967799 182.47315926 131.29229977 193 148 C193.44875488 148.70962891 193.89750977 149.41925781 194.35986328 150.15039062 C229 205.35625428 229 205.35625428 229 222 C227.83766846 221.98952637 226.67533691 221.97905273 225.4777832 221.96826172 C163.77641959 220.86759503 163.77641959 220.86759503 111 250 C98.36888829 263.54608624 92.37019546 279.07571207 89 297 C88.814375 297.9178125 88.62875 298.835625 88.4375 299.78125 C84.82214535 326.37993062 91.36130394 353.70123743 99 379 C99.26119629 379.87720703 99.52239258 380.75441406 99.79150391 381.65820312 C112.79616641 424.71158097 133.74600586 466.08532107 155.93237305 505.03100586 C160.23359114 512.59658114 164.43843998 520.21160929 168.5625 527.875 C169.03722748 528.75662811 169.03722748 528.75662811 169.52154541 529.65606689 C174.00480102 538.00772344 178.17498434 546.47522644 182.1875 555.0625 C191.23940788 574.28671306 203.09960787 590.97628962 216.69921875 607.2421875 C217.43785156 608.13164063 218.17648437 609.02109375 218.9375 609.9375 C219.87916016 611.03384766 219.87916016 611.03384766 220.83984375 612.15234375 C221.22269531 612.76207031 221.60554687 613.37179687 222 614 C221.67 614.99 221.34 615.98 221 617 C218.68766443 618.03831326 216.44677246 618.91495792 214.0625 619.75 C207.27827379 622.28340133 201.6896844 625.46894224 196 630 C195.17757812 630.60585938 194.35515625 631.21171875 193.5078125 631.8359375 C181.11225692 642.53241381 174.96252591 660.43037967 173.74755859 676.29663086 C173.65973842 679.69876376 173.6354145 683.09677135 173.625 686.5 C173.02499202 718.05187569 168.14147112 749.49930065 164.16577148 780.7644043 C162.64269467 792.75040972 161.20900759 804.74156642 159.875 816.75 C158.34196132 830.51557323 156.47494395 844.2171259 154.44824219 857.91894531 C153.78127706 862.50342237 153.17290734 867.09521939 152.5625 871.6875 C151.10930865 882.52999054 149.4584352 893.34228102 147.80102539 904.1550293 C147.59519701 905.49918347 147.38938625 906.84334034 147.18359375 908.1875 C147.08265411 908.84523911 146.98171448 909.50297821 146.87771606 910.1806488 C146.21206937 914.54044217 145.5907136 918.90505027 144.984375 923.2734375 C140.27977285 956.34850011 130.75904336 990.62684432 103.94921875 1012.6875 C82.58172688 1028.63008461 55.09922485 1037.53002383 28.98974609 1041.67382812 C27.2313934 1041.96206852 25.48346213 1042.31238864 23.73828125 1042.671875 C-0.83576045 1047.42606869 -25.3177794 1043.86501038 -46.24609375 1029.9921875 C-60.95425579 1019.35224049 -70.29401961 1005.16376374 -78 989 C-78.34305176 988.30293945 -78.68610352 987.60587891 -79.03955078 986.88769531 C-86.54457726 971.33736358 -88.87730514 954.95832538 -91 938 C-91.14775879 936.86481934 -91.29551758 935.72963867 -91.44775391 934.56005859 C-96.90115316 891.27250047 -97.29032 847.20616078 -97.15234375 803.63671875 C-97.14966492 802.72413898 -97.14698608 801.8115592 -97.14422607 800.87132549 C-97.09592961 784.87570648 -97.00339654 768.88035708 -96.90020752 752.88500977 C-96.83315971 742.42039105 -96.77565095 731.95589343 -96.74565703 721.49109489 C-96.72940063 716.17728033 -96.69461778 710.8640476 -96.64447963 705.55044973 C-96.617588 702.2588556 -96.60780227 698.9673635 -96.60244942 695.67567062 C-96.59663419 694.17132873 -96.58403942 692.66699248 -96.56355286 691.16277885 C-96.38577105 677.62794813 -98.34774018 664.2155948 -105.0625 652.25 C-105.63786499 651.1993335 -105.63786499 651.1993335 -106.22485352 650.12744141 C-115.37156045 634.12482112 -129.18293858 624.16819494 -146.7421875 618.87109375 C-151.49565835 617.72820434 -156.13605803 617.77787059 -161 617.875 C-162.30517578 617.88853516 -162.30517578 617.88853516 -163.63671875 617.90234375 C-165.7579342 617.92565381 -167.87900562 617.96151421 -170 618 C-167.98175937 609.2948533 -165.43296177 600.87582255 -162.5 592.4375 C-162.17570007 591.50183701 -162.17570007 591.50183701 -161.84484863 590.54727173 C-155.61494377 572.62908077 -148.31432106 555.17958919 -140.64550781 537.83520508 C-123.06658129 498.0767727 -112.57729401 459.07551554 -112.73925781 415.42626953 C-112.7498975 412.03269215 -112.73934427 408.63965432 -112.7265625 405.24609375 C-112.71302817 385.02241552 -113.85637505 364.84077224 -116.75 344.8125 C-116.91701416 343.63526367 -117.08402832 342.45802734 -117.25610352 341.24511719 C-124.70052128 288.40564831 -124.70052128 288.40564831 -155 246 C-179.82105892 227.53780147 -208.37796276 225.51032771 -238.5 228.6875 C-261.57922834 232.21928414 -283.7139931 240.02900865 -304.75976562 249.9453125 C-306.88145794 250.94419118 -309.00911338 251.92853039 -311.140625 252.90625 C-314.09745325 254.26306296 -317.05043936 255.62748547 -320 257 C-320.30008193 248.98114406 -319.55926633 241.32760262 -318.359375 233.40332031 C-317.95290816 230.68507332 -317.5708491 227.96378866 -317.1875 225.2421875 C-311.58926882 186.33794769 -301.82006533 148.61535909 -285 113 C-284.63181152 112.20916016 -284.26362305 111.41832031 -283.88427734 110.60351562 C-273.87524688 89.2384925 -261.03366889 69.56736609 -245.01953125 52.20703125 C-243.26095093 50.28517848 -241.59180225 48.32352511 -239.9375 46.3125 C-236.64104593 42.45016962 -232.88208566 39.25806174 -229 36 C-228.12472656 35.236875 -227.24945313 34.47375 -226.34765625 33.6875 C-199.3694854 10.51162169 -166.83949593 -2.97215724 -132 -9 C-131.00613281 -9.1959375 -130.01226563 -9.391875 -128.98828125 -9.59375 C-88.02513816 -17.36360699 -39.68605954 -12.41176192 0 0 Z " fill="#336791" transform="translate(694,90)"/>
<path d="M0 0 C3.19771256 0.74727319 6.4000669 1.47085994 9.60400391 2.19091797 C24.42876082 5.57512985 38.83249087 9.9057807 53.24072266 14.75732422 C49.95860941 18.62242189 46.64176809 22.42777661 43.17822266 26.13232422 C3.04183231 70.66074381 -19.09984807 128.76315614 -31.12304688 186.69628906 C-31.70521558 189.497222 -32.30566579 192.29349357 -32.91162109 195.08935547 C-40.66367633 231.45230948 -43.08933009 269.17711848 -41.03637695 306.23486328 C-38.6474574 349.44821056 -37.65374368 393.69096815 -43.88427734 436.63232422 C-47.21239029 459.68158175 -47.60114699 483.88888171 -42.75927734 506.75732422 C-42.55044922 507.7528833 -42.55044922 507.7528833 -42.33740234 508.76855469 C-36.49676909 535.38264396 -23.81793303 562.28457741 -5.75927734 582.75732422 C-4.64552734 584.03542969 -4.64552734 584.03542969 -3.50927734 585.33935547 C1.52695027 591.03134189 6.81005738 596.44220501 12.24072266 601.75732422 C10.90072768 604.76414222 9.44226974 606.75495031 7.05322266 609.00732422 C4.64630808 611.34546981 2.36100221 613.70890139 0.17822266 616.25732422 C-3.35762019 620.36242974 -7.05262972 624.30727663 -10.75927734 628.25732422 C-14.95904632 632.73667656 -19.12622905 637.22587834 -23.13037109 641.88232422 C-25.09592823 644.14483603 -27.11601044 646.35423104 -29.13427734 648.56982422 C-32.24456585 652.01110627 -35.22406046 655.5205372 -38.13427734 659.13232422 C-41.37880466 663.14558972 -44.74677058 666.98145548 -48.25927734 670.75732422 C-52.48926558 675.30899289 -56.47935986 680.00321811 -60.38037109 684.83935547 C-67.88564346 694.04532994 -75.69467852 703.03842775 -83.75927734 711.75732422 C-84.40123047 712.46501953 -85.04318359 713.17271484 -85.70458984 713.90185547 C-93.40713836 722.05657788 -104.06271776 729.86284383 -115.60595703 730.43017578 C-130.33884072 730.53339542 -140.90209943 724.29245058 -151.33642578 714.23486328 C-152.31214962 713.2643677 -153.28097629 712.28689042 -154.24291992 711.30273438 C-155.30956376 710.21565412 -156.39166839 709.14363555 -157.48461914 708.08300781 C-161.53111615 704.14190845 -165.08817048 700.04607604 -168.44677734 695.50732422 C-169.21151367 694.47696045 -169.21151367 694.47696045 -169.99169922 693.42578125 C-208.44069549 640.85916273 -229.39738326 577.20689117 -249.95776367 516.13458252 C-250.70232929 513.92622993 -251.45098357 511.7193089 -252.20068359 509.51269531 C-254.73517935 502.0248068 -257.05191478 494.50835925 -259.13427734 486.88232422 C-259.73307397 484.71561286 -260.33203724 482.54894754 -260.93115234 480.38232422 C-261.23214844 479.28919922 -261.53314453 478.19607422 -261.84326172 477.06982422 C-262.74851131 473.79625641 -263.66554891 470.52625203 -264.58740234 467.25732422 C-267.47235573 457.02665574 -270.3145087 446.7900282 -272.98632812 436.50146484 C-274.14163365 432.06280954 -275.34405699 427.64142235 -276.59564209 423.22895813 C-278.58764313 416.18518346 -280.43359155 409.12507523 -282.11083984 401.99951172 C-282.32555939 401.09177002 -282.54027893 400.18402832 -282.76150513 399.2487793 C-283.42974117 396.41883275 -284.09499164 393.58820044 -284.75927734 390.75732422 C-284.9644397 389.88448792 -285.16960205 389.01165161 -285.38098145 388.11236572 C-291.14675843 363.54769285 -296.48156352 338.95529037 -300.96679688 314.12402344 C-301.75395765 309.77063669 -302.5660299 305.4220999 -303.38037109 301.07373047 C-305.80815782 288.06126173 -308.11232094 275.03768011 -310.07177734 261.94482422 C-310.23121826 260.88440918 -310.39065918 259.82399414 -310.55493164 258.73144531 C-312.23838825 247.10788775 -312.92658473 235.59990828 -312.99755859 223.85888672 C-313.00966621 221.89355484 -313.00966621 221.89355484 -313.02201843 219.88851929 C-313.03693223 217.12017969 -313.0468162 214.35186448 -313.05444336 211.58349609 C-313.06319036 208.81470972 -313.08381304 206.04644386 -313.1159668 203.27783203 C-313.80094346 142.90758609 -300.25639357 80.96595099 -257.31494141 36.25341797 C-194.99078106 -26.54127481 -89.27009881 -19.87235602 0 0 Z " fill="#336791" transform="translate(380.75927734375,94.24267578125)"/>
<path d="M0 0 C0.9973605 0.00035877 0.9973605 0.00035877 2.01486969 0.00072479 C23.99242302 0.01069231 45.54151093 0.79551015 67.25 4.375 C67.90929504 4.48154907 68.56859009 4.58809814 69.24786377 4.69787598 C144.75330492 16.9377969 210.81776618 50.19529822 264.97470093 103.92446899 C266.39559002 105.33344151 267.82041788 106.73843847 269.24536133 108.14331055 C275.35068935 114.24100895 280.90566661 120.60385637 286.25 127.375 C287.00494751 128.31061768 287.00494751 128.31061768 287.77514648 129.26513672 C323.8759787 174.02880766 323.53656907 236.46369197 317.77734375 290.98339844 C308.63600422 373.57351282 284.45020416 454.54801714 245.25 550.375 C244.79705566 551.43106445 244.34411133 552.48712891 243.87744141 553.57519531 C240.73354568 560.87138482 237.51673338 568.13303102 234.25 575.375 C233.77014648 576.43912109 233.29029297 577.50324219 232.79589844 578.59960938 C215.88453302 615.92200719 196.86251935 651.97745134 176.25 687.375 C183.18036439 687.52574101 189.8779153 687.13629733 196.75 686.25 C197.7517627 686.12383301 198.75352539 685.99766602 199.78564453 685.86767578 C210.74944349 684.41801243 221.62474115 682.45114231 232.49804688 680.44482422 C255.73842127 676.17724076 280.1719653 674.55158346 300.65625 688.47265625 C312.15570227 696.90674248 320.6847756 707.31960024 324.25 721.375 C324.81534381 726.3265479 324.85527554 731.20792447 324.8125 736.1875 C324.83634766 737.45142578 324.86019531 738.71535156 324.88476562 740.01757812 C324.85093001 762.04456217 312.29455018 779.06427681 297.5625 794.375 C291.54322069 800.25472878 284.96799631 805.3305259 278.25 810.375 C277.43088135 811.00124268 277.43088135 811.00124268 276.59521484 811.64013672 C239.24354634 840.1141483 195.26690858 854.10139283 149.25 860.375 C148.43337891 860.49359375 147.61675781 860.6121875 146.77539062 860.734375 C133.46442614 862.61515047 120.10300848 862.55383216 106.6875 862.5625 C105.7588916 862.56358765 104.8302832 862.56467529 103.87353516 862.5657959 C101.20597195 862.56544199 98.53862101 862.5562949 95.87109375 862.54296875 C94.65678932 862.54114845 94.65678932 862.54114845 93.41795349 862.53929138 C89.86282457 862.50966669 86.67112673 862.33077418 83.25 861.375 C83.20101562 862.48746094 83.15203125 863.59992187 83.1015625 864.74609375 C82.88422266 869.64028366 82.65667537 874.53398389 82.4296875 879.42773438 C82.30148353 882.24404112 82.17625413 885.06036167 82.0546875 887.87695312 C78.35520199 973.37181246 72.33236867 1071.65746063 9.25 1140.375 C8.51394531 1141.17679688 7.77789063 1141.97859375 7.01953125 1142.8046875 C-28.1109371 1179.64166101 -88.70920393 1198.43030536 -138.546875 1199.67578125 C-141.19928749 1199.69536779 -143.84793977 1199.70277772 -146.5 1199.6875 C-147.19654694 1199.68501251 -147.89309387 1199.68252502 -148.61074829 1199.67996216 C-178.36097589 1199.51636162 -209.17980986 1191.89335467 -231.75 1171.375 C-233.00490234 1170.29605469 -233.00490234 1170.29605469 -234.28515625 1169.1953125 C-244.04054724 1160.69061266 -251.73564905 1151.21879043 -258.75 1140.375 C-259.40871094 1139.36308594 -260.06742188 1138.35117188 -260.74609375 1137.30859375 C-300.45456202 1072.19309749 -300.69386801 987.40546821 -302.40869141 913.67480469 C-302.56428281 907.50381012 -302.81959258 901.48031813 -303.75 895.375 C-304.87792969 895.82230469 -306.00585938 896.26960937 -307.16796875 896.73046875 C-323.53583146 903.07453337 -340.26664366 907.51414772 -357.75 909.375 C-358.7296875 909.48585938 -359.709375 909.59671875 -360.71875 909.7109375 C-404.35930176 913.87253651 -457.13781309 907.3158747 -492.7734375 879.84765625 C-497.05666991 876.28953799 -500.99672518 872.48572957 -504.75 868.375 C-508.19262046 870.37184953 -511.45284201 872.55348739 -514.70922852 874.83935547 C-537.88671864 890.91795684 -565.79259994 897.7094899 -593.73632812 892.77294922 C-635.58196129 884.50326177 -666.77377943 852.35126261 -689.6875 818.25 C-743.18998979 737.58603638 -771.84614955 640.18763801 -823.75 427.375 C-823.93024719 426.46987671 -824.11049438 425.56475342 -824.29620361 424.63220215 C-828.13371628 405.31093549 -831.37829695 385.9443121 -834.125 366.4375 C-834.31674301 365.08467926 -834.31674301 365.08467926 -834.51235962 363.70452881 C-837.08497262 345.40184665 -837.93660448 327.44709312 -837.93530273 308.97265625 C-837.93747372 305.54153738 -837.95564643 302.11074917 -837.97460938 298.6796875 C-838.02565643 278.85510942 -836.90324999 259.12442153 -834 239.5 C-833.83153564 238.35128418 -833.66307129 237.20256836 -833.48950195 236.01904297 C-823.44051622 170.35373307 -794.70362736 106.60323457 -740.39111328 66.09887695 C-707.20761575 41.92973408 -669.79239506 27.37382261 -629.4375 20.5625 C-628.28403076 20.36769043 -627.13056152 20.17288086 -625.94213867 19.97216797 C-606.64399007 16.91025441 -587.46078391 15.96567594 -567.9375 16 C-566.17761246 16.00081573 -566.17761246 16.00081573 -564.38217163 16.00164795 C-508.89422099 16.11898145 -454.42425632 26.44581654 -401.3125 42.078125 C-400.66087891 42.26985291 -400.00925781 42.46158081 -399.33789062 42.65911865 C-394.2852359 44.16787965 -389.33038182 45.90103767 -384.3984375 47.76464844 C-379.78372022 48.82814339 -375.9195184 47.77307817 -371.88671875 45.44140625 C-370.82396729 44.84646362 -370.82396729 44.84646362 -369.73974609 44.23950195 C-368.98000488 43.80984131 -368.22026367 43.38018066 -367.4375 42.9375 C-335.47324339 25.59077526 -298.92396107 16.17957358 -262.75 13.375 C-262.04037109 13.31860352 -261.33074219 13.26220703 -260.59960938 13.20410156 C-226.76196975 10.63972439 -192.64388378 13.16982596 -159.05859375 17.47265625 C-157.81271484 17.62613525 -156.56683594 17.77961426 -155.28320312 17.93774414 C-153.03995787 18.21535969 -150.79864765 18.50950305 -148.56054688 18.82592773 C-140.86371019 19.75297841 -134.75730214 18.50920398 -127.375 16.3125 C-107.796626 10.88859555 -87.99104913 6.95826544 -67.875 4.125 C-66.80910645 3.97393799 -65.74321289 3.82287598 -64.64501953 3.66723633 C-43.13246082 0.812741 -21.68697534 -0.03337962 0 0 Z M-141.13671875 53.58984375 C-148.67403414 55.85441833 -157.40910304 52.85307029 -164.85546875 51.19921875 C-213.5356651 40.89679003 -269.23652642 40.54594018 -316.75 56.375 C-317.69955566 56.68920898 -318.64911133 57.00341797 -319.62744141 57.32714844 C-337.36475907 63.31983827 -355.62459055 70.73696068 -370.46899414 82.36450195 C-375.70397276 84.68362606 -381.71894421 81.87868242 -386.8515625 80.15234375 C-388.22812412 79.6952765 -389.60475467 79.23841678 -390.98144531 78.78173828 C-391.69739868 78.5419928 -392.41335205 78.30224731 -393.15100098 78.05523682 C-429.86544074 65.79391574 -467.08652473 56.86442211 -505.45605469 51.69091797 C-507.44456786 51.41706356 -509.42970789 51.11892513 -511.4140625 50.81640625 C-542.49531177 46.20780722 -575.56167086 45.19395588 -606.75 49.375 C-607.62785156 49.4874707 -608.50570312 49.59994141 -609.41015625 49.71582031 C-615.53947522 50.50705174 -621.64683599 51.40342872 -627.75 52.375 C-628.98363281 52.56578125 -630.21726562 52.7565625 -631.48828125 52.953125 C-671.87423528 60.08812934 -709.31362494 78.99444901 -738.75 107.375 C-739.57628906 108.138125 -740.40257812 108.90125 -741.25390625 109.6875 C-776.47738767 143.15828812 -795.8699282 195.27703246 -801.44238281 242.79931641 C-801.66124942 244.63188998 -801.89966626 246.46217422 -802.15136719 248.29052734 C-809.38523814 301.39039135 -803.63356603 353.28127157 -793.68115234 405.46484375 C-792.87422743 409.70168491 -792.0955902 413.94262989 -791.33203125 418.1875 C-787.03201393 442.08818893 -781.71280061 465.73303969 -776.1875 489.375 C-775.95593201 490.36657104 -775.72436401 491.35814209 -775.48577881 492.37976074 C-769.64065269 517.66072769 -769.64065269 517.66072769 -762.8125 542.6875 C-760.66979213 550.02986412 -758.69719231 557.40000202 -756.8125 564.8125 C-754.6415766 573.29474563 -752.19289088 581.64603347 -749.46118164 589.96459961 C-747.5192891 595.88333728 -745.71107893 601.83391432 -743.9375 607.8046875 C-740.88833115 618.03499822 -737.62673788 628.1859799 -734.25 638.3125 C-733.95241791 639.20598145 -733.65483582 640.09946289 -733.34823608 641.02001953 C-712.57196553 703.21634959 -688.28907325 770.22999839 -644.75 820.375 C-643.89921875 821.35984375 -643.0484375 822.3446875 -642.171875 823.359375 C-627.05852388 840.52582975 -606.39637174 856.81128832 -582.75 858.375 C-561.57302167 859.21901001 -543.86672621 853.26640418 -527.75 839.375 C-527.24774902 838.9428418 -526.74549805 838.51068359 -526.22802734 838.06542969 C-516.55404998 829.66617673 -508.24218933 820.29016339 -500.1875 810.34765625 C-495.98336446 805.22049736 -491.63973234 800.21332485 -487.31152344 795.19091797 C-485.7474147 793.37199352 -484.18918924 791.54819921 -482.6328125 789.72265625 C-477.41875232 783.6101607 -472.16045643 777.55277424 -466.76171875 771.6015625 C-464.90265331 769.54395609 -463.07071642 767.46653237 -461.25 765.375 C-457.13916189 760.65795535 -452.94182811 756.01999871 -448.75 751.375 C-448.028125 750.570625 -447.30625 749.76625 -446.5625 748.9375 C-441.15086911 742.90739701 -435.68713742 736.92637434 -430.20556641 730.95996094 C-427.65580795 728.18353828 -425.10936495 725.40407666 -422.5625 722.625 C-421.63152451 721.60936208 -420.70053628 720.59373584 -419.76953125 719.578125 C-418.76986328 718.48757813 -418.76986328 718.48757813 -417.75 717.375 C-413.91087884 718.56705589 -410.32796628 720.005171 -406.70166016 721.73583984 C-399.2907053 725.22391138 -391.79682679 727.68115717 -383.875 729.75 C-382.9250415 730.00040039 -381.97508301 730.25080078 -380.99633789 730.50878906 C-372.72924368 732.58114703 -364.65236471 733.5366554 -356.125 733.4375 C-354.58972656 733.42396484 -354.58972656 733.42396484 -353.0234375 733.41015625 C-352.27320313 733.39855469 -351.52296875 733.38695312 -350.75 733.375 C-353.41232942 738.3202147 -356.29502629 742.48152091 -360 746.6875 C-360.98184731 747.81911786 -361.962305 748.95194285 -362.94140625 750.0859375 C-363.41980957 750.63991211 -363.89821289 751.19388672 -364.39111328 751.76464844 C-366.32129769 754.05201753 -368.12252676 756.43326776 -369.9375 758.8125 C-379.91536694 771.23966225 -394.77274869 775.52139372 -409.75 779.375 C-410.99394531 779.70242188 -412.23789062 780.02984375 -413.51953125 780.3671875 C-419.94165727 782.03104692 -426.37430598 783.52235246 -432.87988281 784.82373047 C-451.75354956 788.61589033 -472.5703953 793.96438741 -484.25 810.625 C-488.10796745 817.69794032 -488.94976218 824.04451301 -487.16796875 831.9609375 C-482.22931909 846.2582155 -468.99635489 854.60189384 -456.05712891 860.95507812 C-417.3396872 879.28557897 -365.66708054 879.44542016 -325.75 865.375 C-309.1885486 859.25949399 -294.43090502 850.45573301 -280.75 839.375 C-279.4196222 838.37107137 -278.08682925 837.37032172 -276.75 836.375 C-276.74413376 837.25494629 -276.73826752 838.13489258 -276.73222351 839.04150391 C-282.01304791 976.34543836 -282.01304791 976.34543836 -224.75 1135.375 C-223.945625 1136.27412109 -223.945625 1136.27412109 -223.125 1137.19140625 C-206.55697997 1155.04344783 -180.05497058 1166.43567486 -155.92382812 1167.55200195 C-154.54306605 1167.57819276 -153.16217968 1167.59834552 -151.78125 1167.61328125 C-151.03201767 1167.62302979 -150.28278534 1167.63277832 -149.510849 1167.64282227 C-132.49424454 1167.81851494 -116.39156572 1167.30367137 -99.75 1163.375 C-98.09794637 1163.01948247 -96.44560356 1162.66530601 -94.79296875 1162.3125 C-75.37889245 1157.98372469 -56.08708192 1151.18247335 -38.75 1141.375 C-38.16831055 1141.0464502 -37.58662109 1140.71790039 -36.98730469 1140.37939453 C-3.13154305 1120.96964199 15.94978606 1090.22977394 26.25 1053.375 C26.72373047 1051.7353125 26.72373047 1051.7353125 27.20703125 1050.0625 C30.59733203 1037.52784215 32.49505038 1024.70585706 34.52880859 1011.89477539 C35.06790761 1008.49893338 35.62106744 1005.10557167 36.17822266 1001.71264648 C38.59179014 986.94348194 40.69875366 972.15249436 42.625 957.3125 C42.92755362 954.9987663 43.23020884 952.68504588 43.53295898 950.37133789 C44.44638307 943.37355129 45.35022746 936.3745539 46.25 929.375 C46.38533142 928.3226416 46.52066284 927.2702832 46.66009521 926.18603516 C49.64646284 902.92835686 52.49439386 879.65436048 55.21676636 856.36428833 C55.48632272 854.06031395 55.75723103 851.75649728 56.02957153 849.45285034 C56.40730512 846.250352 56.77879678 843.04719128 57.1484375 839.84375 C57.26061111 838.900121 57.37278473 837.956492 57.48835754 836.98426819 C58.08512285 831.74077208 58.35859947 826.65247188 58.25 821.375 C59.054375 821.66503906 59.054375 821.66503906 59.875 821.9609375 C74.11665025 826.6925384 89.08820668 826.75073493 103.9375 826.6875 C104.82985352 826.68567719 105.72220703 826.68385437 106.64160156 826.68197632 C160.99202161 826.49621774 216.24413336 814.34965058 259.25 779.375 C260.1884375 778.63765625 261.126875 777.9003125 262.09375 777.140625 C273.53968548 768.02161047 285.78845988 756.89199096 290.25 742.375 C291.0588775 734.50255268 291.32361657 726.81864359 286.25 720.375 C281.24852002 714.69692724 274.75494454 710.88744538 267.15185547 710.1796875 C256.96024631 709.66311175 247.29763466 710.675358 237.25 712.375 C236.06543213 712.57303223 234.88086426 712.77106445 233.66040039 712.97509766 C228.66727895 713.81451713 223.67564236 714.66230506 218.68554688 715.51953125 C214.87723262 716.16313439 211.06592803 716.77823058 207.25 717.375 C206.00718262 717.57061523 204.76436523 717.76623047 203.48388672 717.96777344 C193.22878709 719.42517962 183.10812978 719.68366032 172.7578125 719.63574219 C169.98936347 719.62495857 167.22155533 719.63573828 164.453125 719.6484375 C152.66839299 719.65845803 141.62486769 719.02691189 130.3125 715.375 C129.27222656 715.045 128.23195313 714.715 127.16015625 714.375 C124.48396106 713.45539467 121.86547723 712.45394457 119.25 711.375 C120.83130467 708.76958266 122.41455851 706.1653999 124 703.5625 C124.74491699 702.33950195 124.74491699 702.33950195 125.50488281 701.09179688 C128.47039083 696.23914739 131.48404261 691.42273726 134.5534668 686.63525391 C147.45768495 666.47200468 159.01159077 645.50134167 170.25 624.375 C170.72969238 623.4787793 171.20938477 622.58255859 171.70361328 621.65917969 C199.13515275 570.32959127 221.50755236 516.97552748 240.91064453 462.15087891 C242.06100231 458.90161916 243.22843915 455.65880619 244.40234375 452.41796875 C247.94571787 442.5755736 250.98782093 432.65729422 253.78515625 422.578125 C254.95280997 418.38174756 256.20819841 414.2192621 257.49804688 410.05908203 C261.02940671 398.62802438 263.856591 387.06673027 266.54736328 375.41210938 C267.19782805 372.60051044 267.86077376 369.79219051 268.52734375 366.984375 C272.23649191 351.20872027 275.33211755 335.31304838 278.25 319.375 C278.45012695 318.29831055 278.65025391 317.22162109 278.85644531 316.11230469 C287.89464399 266.55258479 294.85128088 201.93973566 266.625 157.3125 C261.40008474 149.86850876 255.33946803 143.1139405 249.25 136.375 C248.44344971 135.48167969 248.44344971 135.48167969 247.62060547 134.5703125 C239.26676035 125.35368902 230.77632076 116.39399153 221.25 108.375 C220.74597656 107.94123047 220.24195313 107.50746094 219.72265625 107.06054688 C203.13797906 92.83143007 184.71887309 80.32837716 165.25 70.375 C164.35796875 69.91673828 163.4659375 69.45847656 162.546875 68.98632812 C147.18913826 61.17541572 131.59653692 54.80118503 115.25 49.375 C113.99960937 48.95734375 112.74921875 48.5396875 111.4609375 48.109375 C108.40447639 47.13440259 105.34063556 46.23539671 102.25 45.375 C101.57404785 45.18486328 100.8980957 44.99472656 100.20166016 44.79882812 C82.79987393 39.93829005 65.24919449 36.15194175 47.25 34.375 C45.99026367 34.23964844 45.99026367 34.23964844 44.70507812 34.1015625 C-16.3219467 27.69134272 -83.11543807 32.77713522 -141.13671875 53.58984375 Z " fill="#010101" transform="translate(838.75,-0.375)"/>
<path d="M0 0 C1.99457883 0.00016541 3.98915722 -0.00255832 5.98373413 -0.00532532 C26.83041178 -0.00205433 47.37886423 0.81146788 67.89901733 4.68766785 C69.67816528 5.01903748 69.67816528 5.01903748 71.49325562 5.35710144 C74.92460444 6.00938734 78.35013258 6.6848685 81.77401733 7.37516785 C82.66798218 7.55386414 83.56194702 7.73256042 84.48300171 7.91667175 C144.22369794 20.26987282 206.681876 57.56093214 241.75839233 108.24235535 C262.94019392 140.54022637 257.97890746 189.84897775 252.77401733 226.37516785 C252.54143177 228.15353811 252.310875 229.93217521 252.08261108 231.71110535 C248.99042395 255.21217475 244.30352413 278.29419709 238.53915405 301.27604675 C237.71928229 304.59686749 236.96012319 307.92730198 236.21762085 311.26603699 C233.92843158 321.50502498 230.80701972 331.48090231 227.67367554 341.48747253 C226.73897662 344.48764045 225.82524261 347.49378909 224.91073608 350.50016785 C202.5732324 423.12657339 172.9906573 494.07715582 135.77401733 560.37516785 C134.86546997 561.9989032 134.86546997 561.9989032 133.93856812 563.65544128 C124.66350736 580.19056343 114.97932025 596.39277607 104.77401733 612.37516785 C101.33397107 611.22848576 100.50766565 610.49573481 98.77401733 607.37516785 C99.17832318 602.77103193 101.34365273 599.01786724 103.46151733 595.00016785 C126.34724417 550.16564661 126.37237621 502.23828261 120.77401733 453.37516785 C120.68962402 452.63107666 120.60523071 451.88698547 120.51828003 451.12034607 C119.66712025 443.616659 118.79721052 436.11547424 117.88317871 428.61917114 C117.6468264 426.67530825 117.4147157 424.73093111 117.18270874 422.7865448 C116.94404375 420.79439076 116.69930202 418.80291399 116.43954468 416.81340027 C115.53088952 409.21894759 115.62327992 401.59061114 115.64364624 393.95402527 C115.64898275 391.57806447 115.64368622 389.20229462 115.63729858 386.82633972 C115.63133824 375.39284194 115.93176065 364.08895825 118.02401733 352.81266785 C119.72131547 343.2221629 121.05647712 333.58271465 122.39901733 323.93766785 C122.50911133 323.15431061 122.61920532 322.37095337 122.7326355 321.56385803 C126.71380203 293.19897387 130.94952581 260.46060873 119.77401733 233.37516785 C119.11084978 231.62500384 118.45081406 229.87365064 117.79354858 228.1212616 C104.45003754 193.42007221 86.10998214 159.38586641 63.13095093 130.11296082 C61.81185365 128.42362392 60.51774946 126.71817035 59.23104858 125.0040741 C43.094935 103.5722016 24.59176006 82.03144477 3.41854858 65.46110535 C0.98488286 63.54149309 -1.35877472 61.54308643 -3.69473267 59.5065155 C-27.78713616 38.62495623 -55.81645757 23.50925993 -84.22598267 9.37516785 C-84.22598267 9.04516785 -84.22598267 8.71516785 -84.22598267 8.37516785 C-77.25421105 6.8686241 -70.25641412 5.57750275 -63.22598267 4.37516785 C-62.12093384 4.18309753 -61.01588501 3.99102722 -59.87734985 3.7931366 C-39.97039506 0.50050947 -20.13924514 -0.00195717 0 0 Z " fill="#336791" transform="translate(834.2259826660156,65.62483215332031)"/>
<path d="M0 0 C8.88316673 8.38004932 13.51584293 18.83318535 16.375 30.5 C16.56126953 31.21075684 16.74753906 31.92151367 16.93945312 32.65380859 C21.28772802 49.30937921 23.59965121 66.26621899 25.82275391 83.30761719 C26.30666191 87.01375722 26.82956136 90.71363643 27.35546875 94.4140625 C29.13765247 107.66817684 29.63591695 120.77096746 29.625 134.125 C29.62440582 134.9166153 29.62381165 135.70823059 29.62319946 136.52383423 C29.57601722 152.92596082 28.91498901 169.01892573 25.9375 185.1875 C25.80973175 185.88799469 25.6819635 186.58848938 25.55032349 187.31021118 C20.8713308 212.50742705 11.3091533 235.76558035 0.91064453 259.04736328 C-10.32682151 284.31290299 -21.10921007 310.56554278 -27.625 337.5 C-55.41395896 339.10836418 -82.67621895 327.18437785 -103.625 309.5 C-104.39239502 308.86022217 -104.39239502 308.86022217 -105.17529297 308.20751953 C-129.70088782 287.54005822 -144.74450544 257.66590576 -150.625 226.5 C-150.89086914 225.11699707 -150.89086914 225.11699707 -151.16210938 223.70605469 C-152.09319754 217.25718877 -151.86767751 210.69386965 -151.875 204.1875 C-151.87667175 203.40545197 -151.87834351 202.62340393 -151.88006592 201.81765747 C-151.88144268 191.02811146 -151.3867697 180.49597862 -149.87748718 169.79678345 C-146.50352951 145.65900096 -146.33520177 121.63732239 -146.42938232 97.32012939 C-146.44017081 93.82133559 -146.43986154 90.3225819 -146.43921089 86.82377434 C-146.43953163 83.37190684 -146.44563181 79.92006376 -146.45284653 76.4682045 C-146.45562584 74.77444782 -146.45666908 73.08068736 -146.45593643 71.38692856 C-146.45477697 62.82242338 -146.56552045 54.3182718 -147.21240234 45.77587891 C-147.30354573 44.42770742 -147.39427157 43.07950763 -147.48454285 41.73127747 C-147.66328436 39.27723967 -147.88457118 36.82575275 -148.15766907 34.38041687 C-148.38779445 31.13718996 -148.48049277 28.63928697 -147.625 25.5 C-144.67812385 22.36832023 -141.41940083 20.46417372 -137.625 18.5 C-136.32784504 17.71652481 -135.03382967 16.92776829 -133.74609375 16.12890625 C-132.52249151 15.43256057 -131.29452507 14.7438325 -130.0625 14.0625 C-129.38541992 13.68689941 -128.70833984 13.31129883 -128.01074219 12.92431641 C-93.07473927 -6.19812565 -35.65139635 -28.7141534 0 0 Z " fill="#336791" transform="translate(519.625,362.5)"/>
<path d="M0 0 C2.36653512 0.03142939 4.73239651 0.04102763 7.09912109 0.046875 C32.38878766 0.17413016 32.38878766 0.17413016 36.60302734 2.28125 C37.15386111 14.82455484 35.65341441 26.75890008 33.7817688 39.14303589 C32.94535108 44.69918366 32.15439261 50.26181382 31.36083984 55.82421875 C31.20496902 56.91293777 31.04909821 58.0016568 30.88850403 59.12336731 C25.99482753 93.50345315 26.03244892 126.03935021 30.23583984 160.48730469 C35.56101259 204.19445364 40.25382611 248.46088896 23.60302734 290.28125 C23.20341797 291.28800781 22.80380859 292.29476563 22.39208984 293.33203125 C22.00150391 294.29689453 22.00150391 294.29689453 21.60302734 295.28125 C20.94302734 295.28125 20.28302734 295.28125 19.60302734 295.28125 C19.15612549 294.34144287 18.70922363 293.40163574 18.2487793 292.43334961 C9.77617827 274.65002232 1.09985014 257.15500438 -8.78466797 240.10498047 C-13.61138439 231.65164883 -18.14324363 223.02953229 -22.71679688 214.4375 C-23.80437784 212.39445339 -24.8943894 210.35269803 -25.98730469 208.3125 C-47.18788972 168.69680827 -67.9780155 125.22517206 -74.39697266 80.28125 C-74.58517578 79.17136719 -74.77337891 78.06148438 -74.96728516 76.91796875 C-77.09586094 58.90247734 -76.64429189 38.85359538 -66.39697266 23.28125 C-50.27599948 3.26900743 -24.13047563 -0.32140488 0 0 Z " fill="#336791" transform="translate(890.39697265625,344.71875)"/>
<path d="M0 0 C11.63680387 4.2731353 17.77887896 10.73223836 23.0546875 21.703125 C25.67281205 28.06451853 26.23504885 35.5475309 24.38671875 42.2109375 C21.64719642 48.12444385 17.20141428 53.08376176 13 58 C11.88625 59.33417969 11.88625 59.33417969 10.75 60.6953125 C-8.93899458 83.42832926 -37.2698842 96.88413088 -67 100 C-72.35781197 100.2849685 -77.69946319 100.34022279 -83.0625 100.3125 C-84.1382579 100.31026428 -84.1382579 100.31026428 -85.23574829 100.3079834 C-105.99641348 100.23077086 -132.54977533 98.79683143 -150 86 C-150 85.34 -150 84.68 -150 84 C-140.99527152 81.10977869 -131.95265214 78.67128815 -122.75 76.5 C-121.47584229 76.19376709 -120.20168457 75.88753418 -118.88891602 75.57202148 C-113.61754586 74.30891791 -108.34848251 73.0535431 -103.04296875 71.94140625 C-73.67218988 65.72354267 -53.04325664 51.7758698 -34.75 28.3125 C-11.12684555 -1.98281158 -11.12684555 -1.98281158 0 0 Z " fill="#346891" transform="translate(539,740)"/>
<path d="M0 0 C1.2684375 0.90685547 1.2684375 0.90685547 2.5625 1.83203125 C20.71312843 13.89184477 43.12068615 16.05191889 64.375 15.89453125 C65.13839691 15.89109711 65.90179382 15.88766296 66.68832397 15.88412476 C89.70760993 15.76352973 111.8583226 13.17740386 134.49267578 9.16357422 C138.17525046 8.54092798 141.85106978 8.05691239 145.5625 7.64453125 C142.5707506 11.73349925 139.19779307 14.75155309 135.125 17.70703125 C134.48030762 18.1752832 133.83561523 18.64353516 133.17138672 19.12597656 C119.35269368 28.92191613 104.47979619 36.87534593 88.5625 42.64453125 C87.59256104 43.001521 87.59256104 43.001521 86.60302734 43.36572266 C73.64155401 48.0852296 60.50230719 50.5486559 46.9375 52.76953125 C45.38216553 53.02585327 45.38216553 53.02585327 43.79541016 53.28735352 C31.08991236 55.30571145 18.47133803 55.91489796 5.625 55.95703125 C4.85813873 55.95964966 4.09127747 55.96226807 3.30117798 55.96496582 C-6.17421082 55.9684216 -15.41277664 55.69341439 -24.75 53.89453125 C-25.56525146 53.73766846 -26.38050293 53.58080566 -27.22045898 53.41918945 C-31.94546171 52.35861989 -35.82211787 51.01624343 -39.4375 47.64453125 C-40.00293572 44.83651997 -40.16037068 42.98711974 -40 40.20703125 C-39.97631348 39.50054443 -39.95262695 38.79405762 -39.92822266 38.06616211 C-39.37021501 26.41480537 -37.03345037 16.50746057 -28.796875 7.9375 C-22.52254886 2.54976343 -7.94391982 -4.41753234 0 0 Z " fill="#356892" transform="translate(939.4375,737.35546875)"/>
<path d="M0 0 C3.79436064 3.05579895 5.81641688 5.45808621 6.48046875 10.35546875 C6.32341338 15.70516717 3.60409359 18.94411599 -0.01953125 22.66796875 C-7.93552846 29.88357938 -15.16323252 32.24510636 -25.83984375 31.94921875 C-37.55250652 30.91320927 -44.76918605 24.3919601 -52.35546875 15.9140625 C-55.48907312 11.68443218 -56.4880466 7.77150955 -56.33203125 2.59375 C-55.81089966 -0.61772345 -54.37231516 -2.16499344 -52.01953125 -4.33203125 C-37.46637473 -13.00199683 -13.55693456 -8.9418079 0 0 Z " fill="#FCFDFD" transform="translate(515.01953125,377.33203125)"/>
<path d="M0 0 C1.41249023 -0.03673828 1.41249023 -0.03673828 2.85351562 -0.07421875 C8.96509485 -0.09973683 13.92578984 0.66697731 18.9375 4.375 C21.41144086 8.08591129 21.1976627 9.69900905 20.6015625 13.96875 C18.48410988 21.64140184 11.45035724 27.46871993 4.984375 31.6328125 C-1.69945666 35.17276778 -8.66549836 35.43402428 -16.0625 34.375 C-23.87215467 31.802087 -29.31536795 28.04664505 -34.0625 21.375 C-35.70878913 18.08242173 -35.60077018 16.0232757 -35.0625 12.375 C-26.41978983 1.64838763 -12.88331324 0.01770902 0 0 Z " fill="#FCFDFD" transform="translate(875.0625,360.625)"/>
</svg>
